<svg version="1.1" id="Layer_1" xmlns="http://www.w3.org/2000/svg" xmlns:xlink="http://www.w3.org/1999/xlink" x="0px" y="0px" width="1200px" height="1200px" viewBox="0 0 1200 1200" enable-background="new 0 0 1200 1200" xml:space="preserve">
<g>
	<g opacity="0.5">
		<g>
			<path fill="#138D75" d="M1145.97,437.996c-5.124-1.505-3.313-1.505-5.124-2.704c-1.801-1.209-1.801,3.906-2.702,4.214&#10;&#9;&#9;&#9;&#9;c-0.91,0.303-2.697-0.602-2.697-4.214c0-3.607-1.82-1.209-3.019-2.104c-1.19-0.896-3.304-3-6.01-3.612&#10;&#9;&#9;&#9;&#9;c-2.702-0.602-6.313-3.901-10.527-6.008c-4.219-2.109-8.134-3.311-12.343-2.704c-4.209,0.595-7.214-0.91-12.029-1.818&#10;&#9;&#9;&#9;&#9;c-4.801-0.905-0.91,1.818,0.303,5.112c1.204,3.318-3.318,1.204-6.925,0.303c-3.612-0.893,3.318-2.704,1.82-4.811&#10;&#9;&#9;&#9;&#9;c-1.517-2.102-2.408,1.213-3.925,1.514c-1.507,0.294-3.92,0.592-6.328,1.187c-2.398,0.602-3.303,0-7.806-0.893&#10;&#9;&#9;&#9;&#9;c-4.517-0.913-2.403,1.199-4.209,0.298c-1.816-0.893-2.711,0-5.731-0.298c-3-0.294-1.199-2.709-2.682-5.415&#10;&#9;&#9;&#9;&#9;c-1.512-2.707-10.243-2.707-13.84-1.811c-3.622,0.898-6.029,1.204-7.826,0c-1.815-1.206-3.318-1.206-6.626-2.104&#10;&#9;&#9;&#9;&#9;c-3.313-0.896,1.801-2.104-0.303-3.91c-2.095-1.811-9.029-0.9-13.229-2.713c-4.223-1.799-13.243-2.993-13.243-1.505&#10;&#9;&#9;&#9;&#9;c0,1.505-2.697,0.913-5.716,1.505c-3.01,0.614,0.612,2.713-0.303,4.823c-0.891,2.1-4.811,2.699-5.707,2.699&#10;&#9;&#9;&#9;&#9;s-3.617-0.898-6.309-1.794c-2.721-0.905-2.418,0.896-6.024,0.592c-3.626-0.291-1.209-4.209-4.223-2.099&#10;&#9;&#9;&#9;&#9;c-2.995,2.099-5.114,5.119-7.209,4.214c-2.104-0.913-1.507-2.405-3.019-4.811c-1.493-2.408,1.512-3.01-0.289-6.318&#10;&#9;&#9;&#9;&#9;c-1.815-3.318-9.034-3.91-15.044-4.512c-6.01-0.611-5.422,3.91-12.935,4.214c-7.522,0.299,1.209-3.019-3.308-3.313&#10;&#9;&#9;&#9;&#9;c-4.503-0.299-12.935,0.898-14.437,1.199c-1.517,0.301-0.602-1.806-2.104-2.408c-1.507-0.592-5.119-1.801-6.02,0&#10;&#9;&#9;&#9;&#9;c-0.896,1.811-6.333,1.811-9.627,3.313c-3.318,1.507-7.532,1.209-5.716,0c1.806-1.206,15.343-9.93,18.343-10.532&#10;&#9;&#9;&#9;&#9;c3.019-0.605,4.83-2.41,3.915-4.503c-0.896-2.114-13.248-6.626-15.039-6.325c-1.806,0.306-3.304-2.415-6.92-1.806&#10;&#9;&#9;&#9;&#9;c-3.612,0.605-0.896-2.706-2.403-3.913c-1.512-1.209-9.029,0.908-11.736,1.811c-2.697,0.905-3.308,2.707-3.906,4.515&#10;&#9;&#9;&#9;&#9;c-0.607,1.794-8.114,2.401-9.935,2.709c-1.811,0.289-4.503-0.915-6.925,0c-2.389,0.896-5.408,1.199-9.01,2.702&#10;&#9;&#9;&#9;&#9;c-3.612,1.5-9.631,2.401-12.632,3c-3.019,0.604-2.417,3.318-4.512,7.228c-2.114,3.908-10.537,2.109-12.945,1.801&#10;&#9;&#9;&#9;&#9;c-2.398-0.303-7.821-0.303-5.711,3.617c2.109,3.898,6.015,5.711,9.323,8.721c3.313,3.01-2.1,7.814-3.612,7.221&#10;&#9;&#9;&#9;&#9;c-1.508-0.607-0.905-5.121-0.905-5.121s-3.313-4.209-4.209-4.811c-0.896-0.602-4.517-2.704-8.721-1.803&#10;&#9;&#9;&#9;&#9;c-4.218,0.908,0.91,8.126,0.91,8.126s-3.622-0.602-5.129-0.913c-1.503-0.291-5.114-0.599-2.995-4.206&#10;&#9;&#9;&#9;&#9;c1.18-2.018-0.587-4.062-1.931-5.23c0.809,1.541-1.136,4.178-2.88,4.934c-2.119,0.903-2.422,3.301-0.905,5.709&#10;&#9;&#9;&#9;&#9;c1.503,2.413-1.811,3.908-0.612,6.313c1.209,2.408,5.716,1.806,10.546,3.022c4.801,1.197,3.597,8.117,1.189,7.216&#10;&#9;&#9;&#9;&#9;c-2.413-0.901-1.189-2.408-2.095-4.512c-0.92-2.114-2.711,0-5.124-0.597c-2.403-0.602-3.308,0.294-2.109,2.702&#10;&#9;&#9;&#9;&#9;c1.209,2.408,0,3.308-1.199,5.411c-1.209,2.116-3.304,3.91-6.622,5.116c-3.289,1.209-9.318-2.104-5.408-1.517&#10;&#9;&#9;&#9;&#9;c3.906,0.609,5.706-4.199,8.423-7.199c2.706-3.019-2.413-3.318-1.517-6.619c0.905-3.311,0-2.704,0-7.823&#10;&#9;&#9;&#9;&#9;c0-5.117-1.498-4.512,0.308-7.221c1.806-2.711,0.905-6.918-2.702-5.425c-3.616,1.517-3.924-1.493-8.423,0.9&#10;&#9;&#9;&#9;&#9;c-4.517,2.408-0.607,5.129-3.308,6.025c-2.706,0.905-6.034,0.905-3.308,3.313c2.702,2.408,0.602,3.91,0,6.313&#10;&#9;&#9;&#9;&#9;c-0.612,2.408,4.801,3.007,6.01,4.811c1.204,1.811,0,4.214-1.806,4.214c-1.796,0-5.716-3.602-9.318-5.413&#10;&#9;&#9;&#9;&#9;c-0.404-0.202-0.799-0.349-1.204-0.489c0.318,2.198,1.204,0.489,1.503,2.588c0.294,2.114-0.905,3.915,1.199,4.522&#10;&#9;&#9;&#9;&#9;c2.105,0.597,0,3.903,0,3.903s-1.801,2.116-2.711,3.012c-0.886,0.898-5.109,3.607-6.905,4.515&#10;&#9;&#9;&#9;&#9;c-1.806,0.903-4.517,3.007-6.015,4.507c-1.512,1.505-2.418,4.221-2.711,6.012c-0.308,1.808-1.214,7.522-1.811,10.228&#10;&#9;&#9;&#9;&#9;c-0.602,2.716-4.821,1.811-6.318,2.413c-1.503,0.602-6.01,3.01-10.513,8.119c-4.517,5.107,0.578,3.003,0.578,6.02&#10;&#9;&#9;&#9;&#9;c0,3,0,3,0.905,5.716c0.905,2.702,0,3.299,0,4.502c0,1.209-1.199,4.515-2.706,5.418c-1.502,0.905-1.796,2.413-4.507,4.223&#10;&#9;&#9;&#9;&#9;c-2.702,1.792,0,7.216,0,7.216c-0.9,1.197-4.218,0-4.218,0l-1.493,2.102c0,0-0.303,3.913-1.517,3.913&#10;&#9;&#9;&#9;&#9;c-1.189,0-6.313-2.413-6.313-2.413s0,2.413-1.806,4.209c-1.791,1.804,0,3.918,0,3.918l2.721,2.391l2.095-1.789&#10;&#9;&#9;&#9;&#9;c0,0,2.413,1.199,2.413,2.702c0,1.503,0,3.029,1.199,4.219c1.209,1.223,3.01,1.799,4.146,3.626c1.137,1.823,1.271,0.881,0,2.393&#10;&#9;&#9;&#9;&#9;c-1.281,1.493-2.938,2.104-1.445,3.609c1.517,1.495,7.527,4.51,7.224,5.405c-0.294,0.905-0.602,3.306-1.498,6.02&#10;&#9;&#9;&#9;&#9;c-0.905,2.711,0.896,3.609,1.801,4.214c0.896,0.597,2.104,2.095,2.104,2.095l1.517,7.436l-0.621,2.8c0,0-7.517,0.301-9.082,0&#10;&#9;&#9;&#9;&#9;c-1.575-0.306-4.146-3.01-5.952-4.211c-1.806-1.194,0-2.93,0-2.93s0.096-1.775,0.915-2.786c0.79-1.006,1.998-3.414,1.594-4.411&#10;&#9;&#9;&#9;&#9;c-0.4-0.999-2.201-3.005-2.509-3.802c0,0-0.068-0.099-0.159-0.272c-0.438-0.433-1.425-0.089-1.941,0.272&#10;&#9;&#9;&#9;&#9;c-0.607,0.393-0.198,1.991-2.605,0.599c-2.418-1.416-5.408-4.628-6.424-4.813c-0.997-0.21-4.204-1.011-4.801-1.011&#10;&#9;&#9;&#9;&#9;c-0.607,0-2.812-1.206-3.414-1.596c-0.602-0.402-4.016,0.39-5.013,0c-1.002-0.402-3.804-0.12-3.804-0.12s2.393,1.924,3.202,2.326&#10;&#9;&#9;&#9;&#9;c0.804,0.402,2.003,2.471,2.003,2.471l-0.043,2.745c-2.234,0.616-5.047,1.416-5.581,1.594c-0.905,0.308-4.806,0.308-6.915,0&#10;&#9;&#9;&#9;&#9;c-2.104-0.289-3.01-1.801-3.612-2.702c-0.597-0.91-4.498-1.507-6.01-1.507c-1.502,0-2.422-0.313-4.816,0&#10;&#9;&#9;&#9;&#9;c-2.413,0.303-0.896,1.507-2.702,3.173c-1.815,1.666-2.109,0.135-3.299,0.135c-1.223,0-1.223-0.308-2.981,0&#10;&#9;&#9;&#9;&#9;c-1.767,0.303-3.655,1.51-3.954,3.015c-0.308,1.502-7.825,0-7.825,0c3.014,1.189,1.204,1.806,1.204,4.199&#10;&#9;&#9;&#9;&#9;c0,2.417,0.915,3.614,1.811,5.422c0.905,1.801,1.512,4.811,6.015,4.512c4.507-0.301,6.92-0.607,10.224,0.612&#10;&#9;&#9;&#9;&#9;c3.308,1.194,6.015,0.289,8.731-0.612c1.883-0.631,2.162-0.072,2.365,1.336c0.087,0.614,0.154,1.365,0.342,2.266&#10;&#9;&#9;&#9;&#9;c0.602,3.01-3.925,8.134-4.512,11.136c-0.602,3.007-3.925,3.315-3.925,3.315h-1.994c0,0,0.544,3.496,1.406,7.289&#10;&#9;&#9;&#9;&#9;c0.111,0.07,0.193,0.152,0.294,0.234c2.726,2.104,2.418,2.398,4.219,1.505c1.806-0.913,3.014-0.913,3.906,1.493&#10;&#9;&#9;&#9;&#9;c0.905,2.415,1.209,6.027,4.527,9.634c3.294,3.614,3.612,5.109,4.209,7.816c0.588,2.711,0.294,3.019,3.597,5.427&#10;&#9;&#9;&#9;&#9;c3.318,2.393,6.024,9.911,9.631,16.241c3.597,6.309,1.507,6.607,2.413,9.313c0.9,2.711,6.607-3.301,10.219-2.097&#10;&#9;&#9;&#9;&#9;c3.607,1.197,6.915-3.313,10.83-3.313c3.91,0,1.503-3.903,3.612-3.597c2.1,0.294,3.607-0.616,4.806-2.408&#10;&#9;&#9;&#9;&#9;c1.223-1.806,2.114-3.019,6.02-2.713c3.92,0.291,6.328-3.908,6.612-4.818c0.313-0.91,2.119-3.905,3.019-4.799&#10;&#9;&#9;&#9;&#9;c0.891-0.908,3-1.512,3.602-2.425c0.612-0.893-1.801-6.323-3.308-8.105c-1.502-1.816-3.313-1.515-5.114-2.124&#10;&#9;&#9;&#9;&#9;c-1.806-0.59-2.398-4.507-2.702-3.604c-0.308,0.908-7.224,3.604-7.224,3.604s-3.01,1.816-4.811,1.816&#10;&#9;&#9;&#9;&#9;c-1.811,0-1.503-2.405-2.408-3.92c-0.896-1.5,0-2.993-0.896-5.413c-0.896-2.41-2.711,1.206-3.617,0&#10;&#9;&#9;&#9;&#9;c-0.91-1.206-4.214-5.408-4.816-6.92c-0.597-1.505,2.104-2.403,3.308-3.908c1.209-1.495,3.915,0.908,5.124,3.602&#10;&#9;&#9;&#9;&#9;c1.199,2.711,4.209,3.318,4.503,5.126c0.308,1.801,5.413,3.612,8.726,2.711c3.308-0.91,4.214-2.114,6.612,0&#10;&#9;&#9;&#9;&#9;c2.408,2.1,3.313,2.398,3.313,2.398s6.328,1.5,8.418,2.403c0.482,0.2,1.348,0.301,2.441,0.323&#10;&#9;&#9;&#9;&#9;c3.877,0.087,10.609-0.684,12.006-0.915c1.811-0.311,4.512,3.005,6.92,5.114c2.403,2.102,6.622,3.303,6.622,3.303l-4.517,1.508&#10;&#9;&#9;&#9;&#9;c0,0,1.204,2.107,2.109,3.308c0.9,1.209,5.105,1.209,6.313,0.604c1.209-0.604,2.702-3.913,2.702-2.405&#10;&#9;&#9;&#9;&#9;c0,1.493,1.204,3.918,0.91,6.309c-0.303,2.408,0,7.226,1.209,9.939c1.19,2.702,1.493,6.313,2.706,9.617&#10;&#9;&#9;&#9;&#9;c1.199,3.308,3.597,5.716,4.503,6.918c0.905,1.202,4.209,11.43,5.119,11.43c0.905,0,3.308-3.301,4.219-3.91&#10;&#9;&#9;&#9;&#9;c0.896-0.597,2.104-1.796,3-5.716c0.9-3.913,2.104-5.124,1.81-8.427c-0.299-3.308,0-2.393,0.602-4.508&#10;&#9;&#9;&#9;&#9;c0.607-2.099,1.194-1.201,2.702-3.905c1.493-2.719,6.005-3.304,7.219-3.01c1.204,0.291,0.905-3.02,1.801-4.816&#10;&#9;&#9;&#9;&#9;c0.905-1.806,2.418-5.109,6.309-3.612c3.92,1.498,2.427-1.806,3.318-2.995c0.91-1.204,0.91-1.204,2.427-3.313&#10;&#9;&#9;&#9;&#9;c1.488-2.119,2.692,0.289,3.587,0.6c0.901,0.301,2.711,0.301,5.124-2.107c2.398-2.408,3.621,1.209,4.507,4.218&#10;&#9;&#9;&#9;&#9;c0.9,2.998,4.209,6.316,6.323,8.413c2.105,2.104,0,6.321,2.105,6.915c2.095,0.616,3.612-1.498,4.806-2.104&#10;&#9;&#9;&#9;&#9;c1.204-0.6,2.711,6.012,4.811,8.724c2.105,2.697-0.597,4.515-1.796,4.804c-1.223,0.313-0.607,5.418,1.199,9.044&#10;&#9;&#9;&#9;&#9;c1.815,3.607,2.109,9.617,5.408,9.617c3.318,0,3.318,8.726,5.432,12.935c2.095,4.209,9.304,2.702,7.517,1.514&#10;&#9;&#9;&#9;&#9;c-1.811-1.221-0.915-6.027-1.209-9.027c-0.299-3.019-2.403-3.019-3.612-3.92c-1.199-0.9-4.811-4.218-6.318-5.711&#10;&#9;&#9;&#9;&#9;c-1.503-1.514-0.905-11.427-0.905-14.139c0-2.721,3.313-0.915,4.223-0.915c0.896,0,3,2.422,4.209,4.223&#10;&#9;&#9;&#9;&#9;c1.199,1.796,4.209,1.502,5.119,3.311c0.9,1.804,1.796,7.207,2.398,5.415c0.597-1.801,3.01-4.507,5.114-4.507&#10;&#9;&#9;&#9;&#9;c2.104,0,3.607-2.716,4.517-3.612c0.891-0.908,3.607-3.915,3.607-5.723s-1.806-5.406-3.906-7.517&#10;&#9;&#9;&#9;&#9;c-2.114-2.099-4.522-6.32-6.02-8.43c-1.507-2.1,1.801-6.015,2.095-6.92c0.308-0.901,3.925-3.607,6.93-3.299&#10;&#9;&#9;&#9;&#9;c3,0.308,3.905,4.204,3.905,1.512c0-2.713,6.318-4.82,9.02-4.226c2.716,0.614,6.02-0.595,6.02-0.595l10.845-8.129&#10;&#9;&#9;&#9;&#9;c0,0,2.393-4.507,2.692-5.41c0.299-0.913,4.512-4.515,5.711-6.615c1.204-2.104-1.806-3.308-1.806-3.308s-0.299-2.112,0.905-3.607&#10;&#9;&#9;&#9;&#9;c1.209-1.505,2.417-1.505,2.417-1.505s-2.104-3.918-2.417-6.33c-0.299-2.403-2.095-3.901-4.512-4.204&#10;&#9;&#9;&#9;&#9;c-2.393-0.308-0.597-1.806-0.597-4.512c0-2.709,1.815-2.709,4.507-4.214c2.706-1.507,4.512-0.301,3.622-2.711&#10;&#9;&#9;&#9;&#9;c-0.915-2.405-2.707-1.493-5.114-0.901c-2.418,0.592-3.318,2.405-5.119,1.503c-1.811-0.91-1.811-1.201-1.811-4.505&#10;&#9;&#9;&#9;&#9;c0-3.32,2.711-1.505,5.422-4.823c2.697-3.308,4.209-2.092,5.707-0.891c1.503,1.189-2.706,3.303-0.602,3.908&#10;&#9;&#9;&#9;&#9;c2.105,0.6,2.105-1.201,7.527-2.405c5.422-1.209,2.413,2.405,1.806,3.308c-0.607,0.903,1.507,3.005,3.299,3.605&#10;&#9;&#9;&#9;&#9;c1.815,0.602,1.815,3.612,2.109,5.719c0.298,2.109-1.791,8.423-1.204,7.224c0.597-1.204,1.204-1.804,5.726-2.109&#10;&#9;&#9;&#9;&#9;c4.512-0.308,5.109-2.706,5.418-6.02c0.294-3.308-2.408-6.328-5.114-8.721c-2.716-2.408-2.104-3.318,0.905-3.318&#10;&#9;&#9;&#9;&#9;c3,0,5.105-7.513,6.015-9.923c0.891-2.398,7.816-1.197,12.328-2.1c4.522-0.893,4.811-7.818,10.522-12.335&#10;&#9;&#9;&#9;&#9;c5.707-4.507,5.422-5.721,6.93-11.43c1.493-5.719,4.199-11.43,3-14.44c-1.194-3,0-5.107-0.905-6.015&#10;&#9;&#9;&#9;&#9;c-0.891-0.905-3.901-2.413-6.005-0.303c-2.109,2.104-3.019,1.792-4.825,0.91c-1.801-0.91-0.612-2.718-3.304-3.019&#10;&#9;&#9;&#9;&#9;c-2.706-0.299,0-2.097,5.109-7.211c5.124-5.121,14.144-9.335,17.76-12.338c3.607-3.007,7.228,0.6,11.717-0.311&#10;&#9;&#9;&#9;&#9;c4.517-0.891,9.333,0,11.134-0.294c1.811-0.299,1.218,4.512,3.93,1.806c2.692-2.706,6.01,0,8.996-0.299&#10;&#9;&#9;&#9;&#9;c3.029-0.303-0.274-2.104-2.403-3.007c-2.1-0.903,3.631-3.014,4.512-5.11c0.92-2.116,8.437-3.621,11.456-4.515&#10;&#9;&#9;&#9;&#9;c2.331-0.715,1.382,3.828,0.857,5.483c1.016-1.278,4.705-3.853,7.556-4.885c3.313-1.204,4.811-5.114,4.811-2.403&#10;&#9;&#9;&#9;&#9;c0,2.699-0.896,6.017-4.811,7.522c-3.911,1.503-8.731,7.517-10.233,9.326c-1.507,1.803-4.199,0.891-4.508,2.401&#10;&#9;&#9;&#9;&#9;c-0.318,1.503-2.099,4.519-5.711,5.721c-3.612,1.202-0.299,8.114,1.199,12.935c1.493,4.801-0.91,12.93,3.318,11.132&#10;&#9;&#9;&#9;&#9;c4.194-1.813,7.204-9.33,7.204-10.833c0-1.503,5.115-0.597,5.115-3.313c0-2.707,2.109-5.408,4.811-6.313&#10;&#9;&#9;&#9;&#9;c2.721-0.91-2.104-3.01-0.294-5.105c1.801-2.116,2.412-3.01-0.602-5.733c-3.01-2.699,0,0,2.403-5.107&#10;&#9;&#9;&#9;&#9;c2.398-5.109,4.204-0.602,6.01-3.01c1.81-2.408,1.517,3.01,3.303,2.102c1.815-0.905,3.024-3.903,6.631-3.616&#10;&#9;&#9;&#9;&#9;c3.621,0.308,5.119,5.728,6.02,2.42c0.905-3.313,11.124-8.721,15.034-10.527c3.91-1.804,3.607-3.01,7.816-2.109&#10;&#9;&#9;&#9;&#9;c4.219,0.91,3.328,3.612,4.527,1.197c1.199-2.401-0.602-3.303-0.602-6.008c0-2.704-2.124-1.209-5.726-1.512&#10;&#9;&#9;&#9;&#9;c-3.607-0.279-0.886-5.709,2.413-3.91c3.313,1.813,4.512-2.405,6.318-3.597c1.801-1.214-0.616-2.413,0-4.214&#10;&#9;&#9;&#9;&#9;c0.607-1.813,4.821-0.303,4.204,1.505c-0.597,1.803,3.92,0.903,6.313,1.803c2.422,0.905,1.825,3.313,3.92,3.607&#10;&#9;&#9;&#9;&#9;c2.114,0.304,3.313,1.495,4.512,2.116c1.199,0.592,3.597-1.221,5.702-4.221c2.119-3.01,6.328-3.612,6.328-3.612&#10;&#9;&#9;&#9;&#9;S1151.084,439.505,1145.97,437.996z" style="fill: rgb(19, 141, 117);"/>
			<path fill="#138D75" d="M933.585,630.531c-0.597,0.448,1.512,4.356,1.512,4.356c0.597,0.301,0.597,0.144,0.741,1.06&#10;&#9;&#9;&#9;&#9;c0.087,0.457,0,0.741,1.517,2.702c1.498,1.955,0,0,0.443-0.901c0.453-0.908,1.055,0.593,1.055,0.593s0.746,0.308,1.06,0.896&#10;&#9;&#9;&#9;&#9;c0.289,0.609,0.602,0.462,1.657,0.161c1.04-0.296,0,0,1.344-0.453l1.055,0.9l0.761,1.057l2.095,1.055c0,0-0.14-0.602-0.299-1.353&#10;&#9;&#9;&#9;&#9;c-0.149-0.758-0.453-1.206-0.746-2.408c-0.308-1.204-0.621-0.318-1.363-0.318c-0.742,0-0.896-0.886-1.363-1.334&#10;&#9;&#9;&#9;&#9;c-0.443-0.458-0.886-0.313-1.483-0.164c-0.612,0.164-0.92,1.368-1.657,1.067c-0.761-0.308-0.149-0.903-0.607-1.806&#10;&#9;&#9;&#9;&#9;c-0.453-0.898,0.294-2.55,0.607-3.749c0.289-1.221,2.846-1.81,2.562-2.718c-0.308-0.908-1.074-1.358-1.517-2.256&#10;&#9;&#9;&#9;&#9;c-0.443-0.91,0.443-1.358,0.443-3.164c0-1.792-0.751-0.149-1.801-0.448c-1.05-0.301-1.348-0.6-2.547-0.6&#10;&#9;&#9;&#9;&#9;c-1.214,0-1.214,0.6-2.114,1.792c-0.891,1.219,0.159,1.51,0.159,2.711c0,1.221,0.149,2.418,0,3.629&#10;&#9;&#9;&#9;&#9;C934.938,632.028,934.192,630.081,933.585,630.531z" style="fill: rgb(19, 141, 117);"/>
			<path fill="#138D75" d="M927.117,653.99c1.508-0.753,2.259-1.801,2.557-2.408c0.308-0.602,0.92-1.064,2.109-1.657&#10;&#9;&#9;&#9;&#9;c1.204-0.604,0.901-1.351,1.059-2.258c0.145-0.901-0.766-1.65-0.766-1.65s0,0.593,0,1.216c0,0.583-1.348,1.341-1.483,1.946&#10;&#9;&#9;&#9;&#9;c-0.164,0.597-2.422,2.254-2.875,2.706C927.276,652.333,925.615,654.734,927.117,653.99z" style="fill: rgb(19, 141, 117);"/>
			<path fill="#138D75" d="M954.046,656.244c-0.149-1.51,0.154-2.254-0.457-2.707c-0.588-0.445-0.14-0.758-0.453-1.204&#10;&#9;&#9;&#9;&#9;c-0.308-0.448-0.588-1.955-1.647-1.815c-1.05,0.169-0.154,1.064-0.457,1.815c-0.294,0.759-1.642,1.06-2.398,1.508&#10;&#9;&#9;&#9;&#9;c-0.746,0.453-1.353,0.893-1.353,0.893s-1.059,1.51-1.503,1.211c-0.443-0.304,0.135-1.211,0.135-1.211s-0.578-0.744-1.498-0.585&#10;&#9;&#9;&#9;&#9;c-0.896,0.144-0.742,0.585-1.503,1.184c-0.746,0.612,0,0-0.746,0.157c-0.766,0.152-1.209,0.604-1.811,1.498&#10;&#9;&#9;&#9;&#9;c-0.592,0.905-0.905,3.022-0.905,3.022s1.199-1.064,1.507-1.51c0.304-0.465,1.209-0.754,1.801-0.754c0.611,0,2.86,0.9,2.86,0.9&#10;&#9;&#9;&#9;&#9;s0.756,0.756,0.756,1.363c0,0.607,0.308,1.19,1.204,1.96c0.896,0.737,1.055,0,1.652,0.14c0.612,0.154,0.308,0.896,1.507,1.361&#10;&#9;&#9;&#9;&#9;c1.194,0.45,0.905-1.361,0.905-1.361s-0.457-0.756-0.751-1.204c-0.303-0.448-0.154-0.896,0-1.503&#10;&#9;&#9;&#9;&#9;c0.14-0.607,0.751-0.457,1.507-0.154c0.737,0.304,1.19,2.557,1.334,1.951c0.164-0.583,1.055-1.19,0.607-2.254&#10;&#9;&#9;&#9;&#9;C953.897,657.893,954.201,657.747,954.046,656.244z" style="fill: rgb(19, 141, 117);"/>
			<path fill="#138D75" d="M942.913,652.483c0,0,1.348-0.448,1.503-1.204c0.145-0.761,1.498-1.206,1.498-1.206&#10;&#9;&#9;&#9;&#9;s0.308-0.751,0.462-1.654c0.149-0.891,0.308-1.498-0.905-1.808c-0.52-0.123,0,1.057,0,1.514c0,0.45-1.353,2.1-1.209,1.49&#10;&#9;&#9;&#9;&#9;c0.154-0.595,0.616-1.799,0.616-1.799s-0.761-1.05-1.358-1.05c-0.607,0-0.607,0.901-0.761,1.498&#10;&#9;&#9;&#9;&#9;c-0.149,0.607-0.284,1.218-0.751,1.512c-0.438,0.296-0.303,1.055-0.303,1.055L942.913,652.483z" style="fill: rgb(19, 141, 117);"/>
			<path fill="#138D75" d="M948.326,647.817c0,0,0.607,1.799,1.517,1.666c0.896-0.161,0,0,0-0.612c0-0.607-0.154-2.105-0.303-2.706&#10;&#9;&#9;&#9;&#9;c0,0-1.064-0.294-1.96-0.448C946.683,645.563,947.579,646.61,948.326,647.817z" style="fill: rgb(19, 141, 117);"/>
			<path fill="#138D75" d="M949.842,641.956h-2.263c-0.453,0.445,1.353,2.099,1.652,3.161c0.308,1.047,2.259,1.803,1.801,0.9&#10;&#9;&#9;&#9;&#9;c-0.443-0.9,0.154-1.659,0.154-2.555C951.186,642.555,949.842,641.956,949.842,641.956z" style="fill: rgb(19, 141, 117);"/>
			<path fill="#138D75" d="M937.799,639.697c-0.607-0.161-1.96,0.147-1.96,0.147s0.761-0.147,0.905,1.057&#10;&#9;&#9;&#9;&#9;c0.149,1.206,0.308,1.654,0.612,2.104c0.299,0.458,1.642,0,1.348-1.194C938.41,640.603,938.41,639.844,937.799,639.697z" style="fill: rgb(19, 141, 117);"/>
			<path fill="#138D75" d="M939.913,647.966c0.602,0.609,1.204,0.453,1.791,0c0.616-0.438,1.666-1.199,1.815-1.801&#10;&#9;&#9;&#9;&#9;c0.154-0.602-0.91-1.358-1.353-1.652c-0.462-0.304-2.254-1.958-2.716-0.458c0,0,0.602,1.358,0.602,1.962&#10;&#9;&#9;&#9;&#9;C940.052,646.61,939.306,647.369,939.913,647.966z" style="fill: rgb(19, 141, 117);"/>
			<path fill="#138D75" d="M890.72,696.541c-0.592-1.042,0.154-1.493,0.443-3.453c0.313-1.943,0.313-1.05-0.742-3.311&#10;&#9;&#9;&#9;&#9;c-1.059-2.258-3.01-3.017-4.074-5.117c-1.04-2.104-1.189,0.164-2.398-0.135c-1.199-0.299,0.453-2.263,0.308-3.46&#10;&#9;&#9;&#9;&#9;c-0.149-1.214-0.766,0.296-2.109-2.714c-1.344-3.007-2.557-1.811-3.91-2.249c-1.348-0.46-2.258-1.206-3.612-2.572&#10;&#9;&#9;&#9;&#9;c-1.353-1.346-1.353-1.936-3.308-2.697c-1.946-0.751-2.856-3.92-4.045-5.411c-1.219-1.505-1.816-0.908-3.626-0.311&#10;&#9;&#9;&#9;&#9;c-1.796,0.612-1.657-0.896-2.851-1.502c-1.214-0.607-2.557,0.607-2.557,0.607c-0.602,1.206,5.114,6.318,6.159,7.377&#10;&#9;&#9;&#9;&#9;c1.059,1.036,1.955,2.244,2.403,3.157c0.472,0.891,1.512,1.498,2.856,3.147c1.367,1.666,0.9,1.055,4.527,4.214&#10;&#9;&#9;&#9;&#9;c3.612,3.161,0.597,1.652,0.597,3.742c0,2.126,2.413,3.47,2.856,4.529c0.462,1.06,5.417,4.529,6.621,5.562&#10;&#9;&#9;&#9;&#9;c1.194,1.047,1.811,1.51,2.403,1.818c0.616,0.291,2.856,0.742,3.467,0.742C890.72,698.506,891.327,697.606,890.72,696.541z" style="fill: rgb(19, 141, 117);"/>
			<path fill="#138D75" d="M917.202,705.123c-1.209-1.957,0,0-1.811,0.161c-1.796,0.14-0.905-0.912-0.905-1.356&#10;&#9;&#9;&#9;&#9;c0-0.467-1.05-1.204-2.114-1.204c-1.05,0-1.652,0-2.995-0.452c-1.353-0.453-0.154-1.057-1.95-2.263&#10;&#9;&#9;&#9;&#9;c-1.825-1.194-1.825,0-2.114,1.206c-0.299,1.197-2.557,1.057-4.055,0.908c-1.512-0.154-1.806-0.303-3.159-0.607&#10;&#9;&#9;&#9;&#9;c-1.363-0.301-1.064-0.301-1.652-1.201c-0.616-0.898-0.905-0.758-1.97-1.067c-1.045-0.291-1.642,0.169-3.602,1.067&#10;&#9;&#9;&#9;&#9;c-1.95,0.9-1.358,1.055-1.358,1.055c1.064-0.301,2.263,0.306,2.706,1.043c0.453,0.754,0.756,1.361,2.716,0.754&#10;&#9;&#9;&#9;&#9;c1.955-0.6,2.398,1.51,3.607,1.668c1.199,0.137,4.503-0.159,5.572-0.299c1.05-0.164,1.194,0.436,1.801,1.344&#10;&#9;&#9;&#9;&#9;c0.588,0.905,1.507,0.905,2.856,0.744c1.353-0.152,1.507-0.595,2.254-0.744c0.751-0.149,1.806,0.593,2.249,1.055&#10;&#9;&#9;&#9;&#9;c0.453,0.453,1.209,0.761,2.413,1.356c1.194,0.595,2.702,0.14,2.408-0.45C917.804,707.232,918.391,707.083,917.202,705.123z" style="fill: rgb(19, 141, 117);"/>
			<path fill="#138D75" d="M930.883,677.296c-0.154-1.045-1.363-0.45-1.811-1.652c-0.448-1.202-0.9-1.804-0.9-1.804l-1.647-0.908&#10;&#9;&#9;&#9;&#9;c0,0-0.751-1.201,0.592-3.002l-0.905-2.692h1.213l1.801,0.443c0,0,0-0.905,0.597-1.666c0.607-0.754,1.811,0.154,1.811,0.154&#10;&#9;&#9;&#9;&#9;s0.607-1.204,0.443-1.95c-0.144-0.749-0.886-0.91-1.647-1.057c-0.756-0.157-1.95,0.599-2.711,0.147&#10;&#9;&#9;&#9;&#9;c-0.751-0.438-0.602-0.602-0.751-2.109c-0.135-1.5-0.299-1.341-1.05-1.5c-0.751-0.147-1.657-0.147-2.258-0.147&#10;&#9;&#9;&#9;&#9;c-0.607,0-1.204,1.064-1.363,1.801c-0.144,0.756-0.602,0.756-0.737,1.353c-0.149,0.602-1.209,1.965-1.209,1.965&#10;&#9;&#9;&#9;&#9;s-0.9,0.294-1.185,0.9c-0.308,0.597-0.467,1.806-1.526,1.806c-1.05,0-1.647-1.507-2.249-0.761&#10;&#9;&#9;&#9;&#9;c-0.612,0.761-0.905,1.661-1.209,2.109c-0.294,0.453-1.213,2.398-1.811,2.87c-0.592,0.443-1.946-0.612-2.851-0.472&#10;&#9;&#9;&#9;&#9;c-0.881,0.154-1.348,0.915-1.95,2.114c-0.602,1.204,0.299,1.96-0.144,3.012c-0.457,1.045-1.507,0.291-3.164-0.45&#10;&#9;&#9;&#9;&#9;c-1.652-0.756-0.751-0.602-1.507-1.512c-0.766-0.903-1.498,0.154-2.716,1.816c-1.189,1.645,0,2.107-0.14,2.995&#10;&#9;&#9;&#9;&#9;c-0.154,0.91,0.905,2.418,1.652,3.458c0.761,1.055,1.498,1.671,1.498,1.671s0.462,2.398,0.462,3.147c0,0.751,0,1.052,0,1.649&#10;&#9;&#9;&#9;&#9;c0,0.612,0.905,1.209,1.801,1.055c0.905-0.147,0.607-0.147,1.657-0.301c1.055-0.142,1.055-0.282,1.671,0.154&#10;&#9;&#9;&#9;&#9;c0.583,0.453,2.995,2.251,2.995,2.251s2.254-1.038,3.756-0.739c1.493,0.296,1.657,2.107,2.865,1.644c1.194-0.445,0,0,1.194,0.159&#10;&#9;&#9;&#9;&#9;c1.204,0.149,2.408-0.159,2.557-1.661c0.144-1.507,0.896-1.654,1.045-2.09c0.159-0.472,1.055-0.472,1.055-1.069&#10;&#9;&#9;&#9;&#9;c0-0.607-1.055-0.749-1.498-1.666c-0.457-0.905,1.05-0.905,1.652-1.344c0.602-0.443,1.951-2.86,1.951-2.86s0-1.04,0-1.49&#10;&#9;&#9;&#9;&#9;c0-0.453,0.313-1.358,0.457-2.112c0.164-0.744,0.607-0.602,1.811-0.602C929.674,678.353,931.028,678.353,930.883,677.296z" style="fill: rgb(19, 141, 117);"/>
			<path fill="#138D75" d="M946.221,677.158c-0.79,0.188-2.413,0.395-4.214,0.395c-1.806,0-1.806-0.602-2.408-0.795&#10;&#9;&#9;&#9;&#9;c-0.602-0.217-2.408,0.193-4.609,1.394c-2.206,1.204-1.209,2.015-1.209,3.012c0,1.002-1.999,2.398-1.999,3.602&#10;&#9;&#9;&#9;&#9;c0,1.209,0,1.806-0.207,2.608c-0.193,0.802-0.982,2.005-0.982,3.01c0,1.014,0.597,1.404,2.191,2.008&#10;&#9;&#9;&#9;&#9;c1.608,0.6-0.592,4.211-0.592,4.211l1.999,1.806l1.209-1.416c0,0,0.193-1.589,0.193-2.196c0-0.602-0.79-2.003-0.79-2.003v-1.811&#10;&#9;&#9;&#9;&#9;l2.995,0.414c0,0,0.4,1.998,0.4,2.995c0,1.011,1.806,0.405,1.806,0.405s2.605-0.193,2.003-1.206&#10;&#9;&#9;&#9;&#9;c-0.607-1.006-0.395-1.006-0.607-2.006c-0.183-0.992,0-1.201-0.795-2.206c-0.79-0.989-1.406-0.799-0.602-2.196&#10;&#9;&#9;&#9;&#9;c0.809-1.416,0.809-0.611,1.815-1.616c0.983-0.989,3.395-2.006,3.005-2.798c-0.409-0.802-1.811,0-3.005,0&#10;&#9;&#9;&#9;&#9;c-1.214,0-1.406,0.599-2.62,1.204c-1.199,0.604-1.002,0.604-3.005-0.21c-0.934-0.371,0.202-1.608,0.804-3.202&#10;&#9;&#9;&#9;&#9;c0.597-1.609,2.201-0.797,3.814-1.406c1.609-0.597,1.796,0,3.602,0.2c1.806,0.21,1.42,0.21,1.998,0.21&#10;&#9;&#9;&#9;&#9;c0.612,0,1.214-0.409,1.811-1.214c0.612-0.799,2.408-1.594,0.809-3.007C947.42,673.949,947.025,676.951,946.221,677.158z" style="fill: rgb(19, 141, 117);"/>
			<path fill="#138D75" d="M1001.765,551.007c-0.39-1.404-0.607-1.197-0.607-2.807c0-1.609-0.587-1.199-1.58-1.609&#10;&#9;&#9;&#9;&#9;c-1.016-0.392-1.016,0.214-2.61,1.006c-1.613,0.804-1.214,1.599-1.214,2.61c0,1.006-1.002,3.802-1.599,5.216&#10;&#9;&#9;&#9;&#9;c-0.607,1.401,0,2.201-1.007,3.405c-1.002,1.204-3.212,2.21-4.411,3.202c-1.194,1.007-1.006-2.803-1.608-2.391&#10;&#9;&#9;&#9;&#9;c-0.612,0.393-1.599,2.593-1.989,3.812c-0.409,1.194-0.809,2.196-2.205,3.807c-1.421,1.589-1.021-1.416-1.815-1.204&#10;&#9;&#9;&#9;&#9;c-0.795,0.195-3.607,0.195-5.817,0.592c-2.215,0.407-5.206,2.41-6.02,3.419c-0.804,0.995-0.804,1.996-1.792,2.598&#10;&#9;&#9;&#9;&#9;c-1.016,0.607-0.819,0.198-2.013,0.997c-1.199,0.811-1.811,1.209-1.811,2.413c0,1.206,1.199,0.197,2.605,0&#10;&#9;&#9;&#9;&#9;c1.406-0.19,0,2.408,0,2.408s0,1.416,1.406,2.798c0,0,2.215-1.382,2.215-2.389c0-1.011,0.597-1.213,0.597-1.823&#10;&#9;&#9;&#9;&#9;c0-0.595,3.207-0.595,3.207-0.595l2.398-0.992c0,0,2.206-2.013,4.228-1.411c0.602,0.188,1.589,1.206,2.191,1.006&#10;&#9;&#9;&#9;&#9;c0.607-0.207,1.002-1.199,1.209-1.806c0.202-0.607,3.227-1.401,3.819-2.21c0.592-0.797,2.596-1.609,2.596-1.609l2.206,0.417&#10;&#9;&#9;&#9;&#9;c0,0,1.204-1.021,1.609-1.813c0.404-0.797,1.199-1.204,1.199-1.204s0.804,1.406,2.008,1.204c1.209-0.195,0.607-2.001,1.006-2.819&#10;&#9;&#9;&#9;&#9;c0.395-0.788,0.395-1.594,0.593-2.198c0.212-0.6,0-1.404,0-2.208c0-0.797,0.212-2.001,1.006-2.41&#10;&#9;&#9;&#9;&#9;c0.804-0.395,1.806-0.193,2.605-5.003C1003.19,548.614,1002.184,552.416,1001.765,551.007z" style="fill: rgb(19, 141, 117);"/>
			<path fill="#138D75" d="M1004.385,495.252c-1.006-0.198-2.013,2.822-2.201,3.414c-0.202,0.602-0.419,1.801-1.026,3.405&#10;&#9;&#9;&#9;&#9;c-0.587,1.616,0.607,2.413,1.411,3.619c0.809,1.197,0.405,1.806,0.202,4.604c-0.202,2.815-0.587,4.011-1.396,5.62&#10;&#9;&#9;&#9;&#9;c-0.804,1.596,0.197,1.799,0.39,3.207c0.203,1.409,0,3.412-0.39,4.63c-0.404,1.189,0.997,3.987,0.997,3.987&#10;&#9;&#9;&#9;&#9;c-0.188-0.59,1.006-1.401,2.22-1.401c1.199,0,1.801,2.013,1.801,2.013s0.597-0.809,0.597-2.21c0-1.416-0.997-1.199-2.013-1.594&#10;&#9;&#9;&#9;&#9;c-0.997-0.416-0.592-2.815-0.592-2.815s0-2.201,0.207-3.821c0.193-1.599,0.385-1.806,1.801-2.393c1.401-0.607,3.01,1.204,3.01,0&#10;&#9;&#9;&#9;&#9;c0-1.211-1.209-3.01-1.609-4.016c-0.409-1.002-0.804-3.198-0.997-5.211c-0.212-2.008,0-1.397-1.006-3.414&#10;&#9;&#9;&#9;&#9;c-1.006-1.999-0.597-3.207-0.597-4.209C1005.194,497.659,1005.381,495.458,1004.385,495.252z" style="fill: rgb(19, 141, 117);"/>
			<path fill="#138D75" d="M1012.412,537.769c0-1.209,0-2.61-1.209-1.209c-1.214,1.406-3.212-1.194-5.013-1.599&#10;&#9;&#9;&#9;&#9;c-1.806-0.392-2.008-0.997-2.615-2.598c-0.602-1.611-2.418-2.415-2.605-1.404c-0.188,0.992-0.188,4.199-0.188,5.206&#10;&#9;&#9;&#9;&#9;c0,1.009,0.188,1.801-0.621,3.007c-0.785,1.197-2.605-0.794-2.605-0.794s-0.997,2.203-1.998,2.396&#10;&#9;&#9;&#9;&#9;c-1.007,0.212-1.199,1.813-0.405,2.206c0.804,0.409,0,2.215,0,2.215c2.403,0.597,3.409-0.404,3.409-0.404s0-0.997,0.198-1.599&#10;&#9;&#9;&#9;&#9;c0.212-0.604,2.21-0.809,3.809-1.811c1.613-1.011,2.215,2.008,2.812,2.808c0.612,0.809,1.416-1.601,1.609-2.808&#10;&#9;&#9;&#9;&#9;c0.207-1.197,2.21-1.406,3.612-1.197c1.406,0.185,3.207,0,2.605-0.804C1012.605,538.588,1012.412,538.978,1012.412,537.769z" style="fill: rgb(19, 141, 117);"/>
			<path fill="#138D75" d="M715.334,544.126c0.091,0.173,0.159,0.272,0.159,0.272C715.454,544.289,715.406,544.198,715.334,544.126z&#10;&#9;&#9;&#9;&#9;" style="fill: rgb(19, 141, 117);"/>
			<path fill="#138D75" d="M715.334,544.126c0.091,0.173,0.159,0.272,0.159,0.272C715.454,544.289,715.406,544.198,715.334,544.126z&#10;&#9;&#9;&#9;&#9;" style="fill: rgb(19, 141, 117);"/>
		</g>
		<path fill="#138D75" d="M347.164,375.669c0,0,1.811,2.104,3.91,2.104c2.099,0,3.901,3.607,3.901,3.607s3.918,2.704,6.034,1.811&#10;&#9;&#9;&#9;c2.099-0.915,3.905-2.099,5.709-1.811c1.813,0.294,9.33-0.597,11.738,0.595c2.393,1.216,7.806,3.915,9.025,5.709&#10;&#9;&#9;&#9;c1.182,1.811,3.891,2.716,4.517,4.235c0.588,1.5,0.289,5.102,2.398,6.311c2.097,1.194,1.81,4.214,1.81,6.01&#10;&#9;&#9;&#9;c0,1.811-4.209,4.82-1.81,6.32c2.403,1.5,3.91,2.709,4.507,0c0.604-2.709,2.1-4.51,4.214-2.709&#10;&#9;&#9;&#9;c2.109,1.808,1.594,5.109,3.958,5.716c2.357,0.597,1.854,2.408,0,2.711c-1.849,0.296-7.568,0.296-8.769,0&#10;&#9;&#9;&#9;c-1.209-0.304-2.1,2.995-0.296,3.908c1.789,0.908,6.309,0,6.309,0s0.393-3.612,2.757-2.413c0,0,3.154-0.195,3.357,1.806&#10;&#9;&#9;&#9;c0.207,2.02-1.397,2.815-2.008,4.216c-0.595,1.401-2.596,2.605-4.801,3.419c-2.22,0.79-2.403,2.191-2.62,3.997&#10;&#9;&#9;&#9;c-0.183,1.813,2.417,3.619,1.418,5.62c-1.019,2.003-0.397,4.411,1.202,5.415c1.603,0.994,1.994,2.8,1.994,4.216&#10;&#9;&#9;&#9;c0,1.399,0.616,3.4,1.623,2.6c0.992-0.804,0.992-3.809,2.393-3.205c1.397,0.605,2.612,2.003,1.611,2.598&#10;&#9;&#9;&#9;c-1.014,0.607-4.026,2.006-3.21,3.005c0.795,1.004,2.605,1.199,3.21,3.217c0.595,1.998,0.595,3.207,2.208,4.016&#10;&#9;&#9;&#9;c1.594,0.804,2.391,0.992,2.605,2.398c0.193,1.411,0.395,2.206,1.999,2.413c1.608,0.202,3.207,0,4.613,0.202&#10;&#9;&#9;&#9;c1.397,0.193,1.796,0.39,3.01,1.991c1.209,1.606,2.41,2.81,4.011,1.818c1.609-1.011,3.405-0.212,3.809-2.808&#10;&#9;&#9;&#9;c0.41-2.615,3.005-4.616,2.013-6.015c-1.026-1.413-1.204-3.809,0.395-4.421c1.596-0.597,4-1.613,4-2.812&#10;&#9;&#9;&#9;c0-1.194,0.811-2.798-0.59-3.6c-1.409-0.807,2.201-1.206,0.202-3.417c0,0,2.605-0.195,3.407-1.397&#10;&#9;&#9;&#9;c0.797-1.216,2.008-2.413,3.814-2.203c0,0,1.996-1.608,2.401-3.414c0.39-1.808,1.406-0.407,1.406,1.606&#10;&#9;&#9;&#9;c0,2.003,3.414,2.206,4.413,0c1.006-2.206,1.999-0.202,3.412-1.801c1.399-1.613,1.796-2.208,3.198-3.407&#10;&#9;&#9;&#9;c1.409-1.206,0-2.617,2.824-4.014c2.791-1.416-0.214-2.015,0.195-3.612c0.4-1.611,1.592,2.81,3.999,2.6&#10;&#9;&#9;&#9;c2.41-0.2,7.423-2.403,10.838-2.403c3.414,0,4.608-0.794,7.406-2.81c2.81-1.991,8.639-2.798,8.639-5.218&#10;&#9;&#9;&#9;c0,0-2.605,0.202-5.023-1.392c-2.398-1.613-2.601,1.594-6.203,1.189c-3.619-0.397-3.022-0.992-0.819-2.196&#10;&#9;&#9;&#9;c2.215-1.199,4.421-2.408,3.203-3.419c-1.189-0.994,1.42-1.996,3.424-0.585c1.999,1.399,3.412,5.011,6.814,3.802&#10;&#9;&#9;&#9;c3.405-1.206,0.616-3.414-0.404-5.213c-0.992-1.81-0.8-3.209-3.205-3.821c-2.41-0.588-4.604-2.403-5.208-2.403&#10;&#9;&#9;&#9;c-0.616,0-3.012-1.998-1.42-2.8c1.608-0.807,2.624-1.004,3.424,0.604c0.795,1.599,1.401,2.603,3.412,3.207&#10;&#9;&#9;&#9;c2.006,0.602,3.207,3.01,4.409,2.201c1.199-0.809-1.806-2.003,0-3.212c1.806-1.204,0.397-1.998-2.21-2.401&#10;&#9;&#9;&#9;c-2.6-0.4-2.798-2.408-5.215-3.21c-2.398-0.804,0.205-2.02,2.21-1.197c1.998,0.802,2.812,3.2,4.825,2.396&#10;&#9;&#9;&#9;c1.984-0.795,2.788-2.206,3.997-1.806c1.206,0.405,1.006-1.998-1.801-2.21c-2.812-0.193-2.413-2.196-1.202-2.196&#10;&#9;&#9;&#9;c1.202,0,2.805,1.399,4.009,0.602c1.199-0.811,1.004-1.199,2.403-0.602c1.406,0.602,2.608-1.803,0.202-2.013&#10;&#9;&#9;&#9;c-2.405-0.183-4.016-0.799-4.016-1.996c0-1.211,0.207-2.812-1.199-2.812c-1.399,0,1.406-2.208,3.614,1.197&#10;&#9;&#9;&#9;c2.194,3.429,2.805-0.183,2.194-1.401c-0.592-1.194-1.204-3.207-2.998-3.207c-1.799,0,3.21-1.996,1.404-2.196&#10;&#9;&#9;&#9;c-1.806-0.193-4.214,1.599-5.82-0.193c-1.599-1.82-0.788-3.231,1.004-3.024c1.801,0.197,2.206-1.406,4.002-0.997&#10;&#9;&#9;&#9;c1.816,0.39,5.422,2.201,6.027,0.997c0.599-1.194,1.206-3.005-0.605-3.005c-1.806,0-4.813-0.2-6.012-0.792&#10;&#9;&#9;&#9;c0,0,0.407-2.215-0.614-2.215c0,0,2.62,0.999,4.223,0.802c0,0-0.207-1.808-2.61-2.206c-2.408-0.414-3.405,1.796-5.013,0.804&#10;&#9;&#9;&#9;c-1.604-1.006,2.403-4.216,2.215-6.025c-0.207-1.796,2.388,0.207,2.998-1.397c0.595-1.608,0.595-5.817,2.808-5.817&#10;&#9;&#9;&#9;c2.206,0,4.611-0.412,5.222-2.408c0.597-2.003,1.594-1.002,2.995-2.41c1.411-1.404,1.608-3.205,4.214-3.392&#10;&#9;&#9;&#9;c2.615-0.212,2.008-1.214,3.819-2.225c1.813-1.002,6.203-2.196,4.411-2.798c-1.801-0.605-5.817-1.808-9.025-1.611&#10;&#9;&#9;&#9;c-3.21,0.205-6.229,1.813-9.431,2.006c-3.214,0.207-7.014,1.401-7.014,1.401s1.392-2.61-0.405-1.594&#10;&#9;&#9;&#9;c-1.801,0.999-4.613,4.206-6.419,5.403c-1.804,1.211-4.002,0.414-4.002,0.414s2.003-1.806,3-2.815&#10;&#9;&#9;&#9;c1.002-1.004,3.814-3.205,3.01-4.204c-0.804-1.019-0.804-2.81-4.611-2.011c-3.826,0.804-3.609,1.604-5.415,2.196&#10;&#9;&#9;&#9;c-1.811,0.611-6.02,2.213-7.825,1.815c-1.811-0.4,4.813-1.204,5.82-3.019c0.994-1.792-5.011-0.592-9.027-0.592&#10;&#9;&#9;&#9;c-4.007,0-12.627,0.802-12.627,0.802s4.606-2.617,7.809-2.617c3.219,0,12.841,0.616,14.84,0c2.018-0.588,7.835-1.382,7.835-1.382&#10;&#9;&#9;&#9;l4.214-1.82c0,0-2.61-1.199-6.426-1.199c-3.807,0-7.409-0.202-8.228,0.202c-0.792,0.393,2.215-1.401,2.413-2.21&#10;&#9;&#9;&#9;c0.193-0.799-2.413-0.799-2.413-0.799s0.198-2.003-2.203-2.206c-2.401-0.202-8.63,0-10.419-1.002&#10;&#9;&#9;&#9;c-1.813-1.011-6.024-0.4-7.828-0.4c-1.803,0-6.02-0.407-6.417,0.202c-0.407,0.588-2.408-0.202-5.218,0.198&#10;&#9;&#9;&#9;c-2.8,0.39-5.008,0.39-6.41,0.799c-1.397,0.405-1.397,1.811,0,2.603c1.401,0.809-2.81,2.213-4.618,1.004&#10;&#9;&#9;&#9;c-1.811-1.199-5.206-1.004-7.012-1.604c-1.813-0.602-6.222-0.193-9.034,0.6c-2.805,0.809-5.415,1.004-3.609,1.611&#10;&#9;&#9;&#9;c1.801,0.602,4.618,2.003,4.618,2.003l2.215,2.6c0,0-2.215,0.409-2.817,1.016c-0.611,0.597,1.204,3.005-1.204,2.003&#10;&#9;&#9;&#9;c-2.408-1.016-6.621-3.019-8.223-3.212c-1.606-0.2-4.818-1.401-6.025-1.401c-1.192,0-2.8,0.595-2.8,0.595l1.998,2.208&#10;&#9;&#9;&#9;c0,0,2.413,2.61,0.202,1.811c-2.201-0.804-6.205-3.602-7.806-3.412c-1.615,0.2-3.024,0.2-5.63-0.607&#10;&#9;&#9;&#9;c-2.605-0.802-3.609,1.409-8.622,2.015c-5.018,0.597-4.409,1.801-4.409,1.801s-4.416-0.602-6.207,0.797&#10;&#9;&#9;&#9;c-1.815,1.409,3.005,4.816-1.401,4.604c-4.43-0.195-5.632,0-7.43,1.416c-1.806,1.409-10.835,5.415-7.426,6.22&#10;&#9;&#9;&#9;c3.414,0.799,8.427-0.405,8.427-0.405s-0.814,2.403-2.008,3.814c-1.199,1.401-2.403,3.797-4.811,3.597&#10;&#9;&#9;&#9;c-2.41-0.193-6,0-7.426,1.214c-1.406,1.194-10.623,1.204-11.23,3.799c-0.59,2.605,1.604,2.415,4.016,3.019&#10;&#9;&#9;&#9;c2.405,0.602,6.217,1.796,7.026,1.994c0.799,0.212,2.798-0.198,5.403-0.59c2.61-0.407,5.413,0.999,2.815,2.215&#10;&#9;&#9;&#9;c-2.61,1.187-5.825,1.187-7.823,0.792C352.076,374.662,345.662,373.861,347.164,375.669z" style="fill: rgb(19, 141, 117);"/>
		<path fill="#138D75" d="M323.606,653.817c0,0,4.007,4.007,3.617,8.018c-0.421,4.016,2.391,6.424-0.421,8.832&#10;&#9;&#9;&#9;c-2.8,2.408-7.214,6.41-8.011,9.224c-0.809,2.812-2.812,7.614-0.405,8.432c2.403,0.79-4.811,3.195-2.408,7.211&#10;&#9;&#9;&#9;c2.408,3.999,4.811,6.81,6.814,11.221c2.003,4.421,7.633,13.241,8.432,16.855c0.799,3.604,2.408,3.604,6.41,6.017&#10;&#9;&#9;&#9;c4.014,2.413,10.026,6.819,10.026,6.819s1.611,10.026,0,19.653c-1.599,9.631-1.999,15.246-2.798,17.647&#10;&#9;&#9;&#9;c-0.806,2.401-0.014,14.033-4.007,22.453c-4.021,8.415-2.425,12.042-2.807,17.654c-0.414,5.606-2.822,8.011-1.214,8.42&#10;&#9;&#9;&#9;c1.596,0.407,2.812-8.018,4.021-4.806c1.201,3.19-0.409,6.005-1.618,9.217c-1.189,3.215-0.807,4.416-4.012,6.419&#10;&#9;&#9;&#9;c-3.202,2.008-4.002,2.798-2.003,4.007c2.003,1.211,2.413,7.616,2.003,10.431c-0.404,2.82-1.594,4.409,0.409,6.017&#10;&#9;&#9;&#9;c1.999,1.608,4.012,3.207,4.012,5.213c0,2.008,2.41,2.81,4.409,3.21c2.006,0.397,1.206,4.026,2.415,4.82&#10;&#9;&#9;&#9;c1.189,0.785,4.411,3.212,8.018,3.605c3.612,0.404,10.826-2.82,12.429-2.82c1.613,0-10.835-3.585-12.429-7.599&#10;&#9;&#9;&#9;c-1.608-4.019,0.4-4.423-2.815-6.027c-3.21-1.604,2.001-5.198,3.629-6.819c1.584-1.604,6.8-4.818,7.195-8.415&#10;&#9;&#9;&#9;c0.416-3.614-8.413-3.214-4.804-6.824c3.609-3.609,5.22-4.409,7.221-7.224c2.003-2.815,0-7.211,2.393-10.826&#10;&#9;&#9;&#9;c2.418-3.604,6.429-1.998,8.028-6.821c1.611-4.811,7.214,0.41,11.233-3.207c4.009-3.605,4.009-5.618,2.812-7.228&#10;&#9;&#9;&#9;c-1.202-1.592-2.408-7.614-2.408-7.614s7.623,4.019,10.823,1.201c3.207-2.793,8.033-8.015,10.83-11.63&#10;&#9;&#9;&#9;c2.807-3.604,4.016-7.209,6.419-9.617c2.408-2.413-1.594-4.816,2.01-9.222c3.604-4.411,11.625-8.432,16.443-8.432&#10;&#9;&#9;&#9;c4.818,0,4.409-2.408,6.02-5.613c1.608-3.21,1.608-7.221,3.202-12.432c1.62-5.222,1.62-14.035,5.218-15.649&#10;&#9;&#9;&#9;c3.604-1.594,5.218-7.219,6.422-8.822c1.197-1.604,5.625-12.424,0.79-14.038c-4.806-1.609-8.41-3.612-13.633-5.211&#10;&#9;&#9;&#9;c-5.225-1.606-16.046-3.612-18.454-6.817c-2.403-3.207-5.61-0.407-8.418,0c-2.808,0.402-0.402-3.207-6.02-1.606&#10;&#9;&#9;&#9;c0,0,3.212-2.813,3.619-5.228c0.397-2.405-2.015-6.809-6.417-10.423c-4.426-3.612-9.622-1.594-15.646-5.601&#10;&#9;&#9;&#9;c-6.02-4.021-8.023-8.832-11.225-8.832c-3.219,0-2.817-2.415-6.034-4.411c-3.198-2.003-8.813,3.207-13.229,0&#10;&#9;&#9;&#9;c-4.392-3.207-6.419-0.799-8.411-2.812c-2.013-2.003-6.826,2.013-8.03,2.013c-1.197,0,4.009-6.814,0.802-4.83&#10;&#9;&#9;&#9;c-3.2,2.013-9.22,3.626-11.228,6.02c-1.999,2.422-2.81,7.233-6.422,5.63C322.792,651.014,322.402,652.216,323.606,653.817z" style="fill: rgb(19, 141, 117);"/>
		<g>
			<g>
				<path fill="#138D75" d="M53.563,424.09c0,0,2.715-2.403,5.731-2.099c2.995,0.294,6.01-2.104,7.502-4.216&#10;&#9;&#9;&#9;&#9;&#9;c1.513-2.097,5.419-4.813,7.825-4.813c2.402,0,8.128-2.401,10.536-3.005c2.406-0.599,4.812,0.604,4.812,0.604&#10;&#9;&#9;&#9;&#9;&#9;s-4.812,2.107-3.612,2.401c1.206,0.308,7.806-1.204,8.716-1.204c0.907,0,4.821,3.019,8.14,2.408c3.287-0.597,8.408,0,9.311,0&#10;&#9;&#9;&#9;&#9;&#9;c0.905,0,3.003,3.316,6.614,3.015c3.62-0.306,8.427-0.306,9.925,0c1.506,0.301,2.72,3.007,5.42,2.707&#10;&#9;&#9;&#9;&#9;&#9;c2.714-0.306,4.216,3.612,8.722,3.612c4.519,0,7.222,0.592,7.222,0.592s0.302-3.903,2.408-3.903&#10;&#9;&#9;&#9;&#9;&#9;c2.114,0,4.515-0.913,5.415-1.211c0.91-0.294,6.323-2.697,8.119-2.697c1.801,0,1.411,1.695-0.4,1.892&#10;&#9;&#9;&#9;&#9;&#9;c-1.791,0.202-3.197,1.409-4.613,2.015c-1.397,0.607-2.807-0.193-3.409,0.992c-0.597,1.216-1.004,2.213-1.004,2.213&#10;&#9;&#9;&#9;&#9;&#9;s4.019-1.604,5.02-2.003c1.002-0.409,4.007-2.008,4.604-2.413c0.604-0.4,3.217-0.997,3.217-0.997l-0.592,1.401l2.588-2.006&#10;&#9;&#9;&#9;&#9;&#9;l0.807-1.601l-0.404-1.406c0,0,2.615,0.804,3.007,1.406c0.409,0.602,0.21,2.001,0.811,2.6c0.6,0.602,0.4,1.813,1.806,2.21&#10;&#9;&#9;&#9;&#9;&#9;c1.401,0.395,2.803-0.59,3.207-2.21c0.39-1.604,1.806-2.803,2.605-2.398c0.804,0.4,0.2,2.003,0,2.793&#10;&#9;&#9;&#9;&#9;&#9;c-0.195,0.811-0.792,1.016,0.804,2.025c1.599,0.994,3.01-1.413,3.01-1.413s0-1.801,1.394-1.401&#10;&#9;&#9;&#9;&#9;&#9;c1.414,0.395,6.824,1.401,6.824,2.015c0,0.59,2.805,1.606,3.812,1.794c0.994,0.202,4.609,0.407,4.609,0.407&#10;&#9;&#9;&#9;&#9;&#9;s1.801,1.197,2.605,1.197c0.807,0,3.612-1.401,5.013-0.4c1.411,0.997,2.013,1.401,2.812,2.405&#10;&#9;&#9;&#9;&#9;&#9;c0.795,1.004,0.402,2.203,0.402,2.203s-5.013,0.799-3.609,1.413c1.401,0.592,5.22,0.395,6.814,0.592&#10;&#9;&#9;&#9;&#9;&#9;c1.604,0.21,6.217-0.592,6.819-0.802c0.602-0.2,3.207-0.404,3.814,0c0.597,0.405,0.597,1.209,2.418,2.003&#10;&#9;&#9;&#9;&#9;&#9;c1.787,0.807,3.188,2.218,2.388,2.817c-0.794,0.592,0.8,1.599,1.611,1.599c0.802,0,0.604-4.613,0.604-4.613&#10;&#9;&#9;&#9;&#9;&#9;s-2.215-1.806-1.002-2.403c1.199-0.607,3.198-1.204,3.198-1.204s0.212-3.015,0.802-3.207c0.604-0.205,2.827,0.797,3.417,1.206&#10;&#9;&#9;&#9;&#9;&#9;c0.602,0.395,2.21,2.213,3.417,2.405c1.202,0.193,13.823,2.605,14.835,2.605c1.009,0,2.003,0.197,2.812-1.209&#10;&#9;&#9;&#9;&#9;&#9;c0.79-1.397-0.809-2.803,0.602-2.998c1.401-0.2-2.218-3.017-2.218-3.017s2.011-2.408,2.625-3.21&#10;&#9;&#9;&#9;&#9;&#9;c0.595-0.811,2.396-0.585,3.402,0.205c0.992,0.8,4.604,3.005,4.604,4.204c0,1.209-2.603,2.413-2.398,3.227&#10;&#9;&#9;&#9;&#9;&#9;c0.202,0.79-1.194,1.389,0.395,2.6c1.599,1.204,1.599-1.416,2.605-2.015c1.011-0.585,3.01-0.797,3.607-1.002&#10;&#9;&#9;&#9;&#9;&#9;c0.611-0.19,2.61-1.601,1.019-3.207c-1.616-1.601-0.207-2.798-3.614-4.012c-3.419-1.206-5.827-3.005-5.008-3.807&#10;&#9;&#9;&#9;&#9;&#9;c0.792-0.797,1.392-3.802,1.199-4.423c-0.202-0.585,0.597-2.391,2.001-2.6c1.401-0.195,2.41-2.413,2.41-2.413&#10;&#9;&#9;&#9;&#9;&#9;s1.998,0.612,3.012,2.02c0.989,1.401,4.811,1.791,4.811,3.4c0,1.613-1.211,1.811,0.195,4.218c1.397,2.398-1.007,1.799,0,3.809&#10;&#9;&#9;&#9;&#9;&#9;c1.006,2.003,1.397,1.394,2.803,1.394c1.396,0,1.204,0.421,1.801,2.413c0.605,2.015,1.011,1.197,1.011,3.207&#10;&#9;&#9;&#9;&#9;&#9;c0,2.006,1.599-5.011,4.011-4.404c2.405,0.597,3,0.997,3.804,3.003c0.804,2.01-2.008,0.409-1.796,2.608&#10;&#9;&#9;&#9;&#9;&#9;c0.193,2.206-0.799,3.807,1.204,4.219c2.001,0.385,4.801-1.204,4.801-3.015c0-1.801,1.204-3.402,2.817-4.206&#10;&#9;&#9;&#9;&#9;&#9;c1.601-0.819,1.601-1.404,1.199-3.402c-0.405-2.02,0.202-3.826,2.21-3.621c2.003,0.193,2.201,1.806,4.609,2.208&#10;&#9;&#9;&#9;&#9;&#9;c2.41,0.397,3.612,0.607,4.416,2.603c0.804,1.998-1.806,2.608-2.403,4.009c-0.597,1.409,0.597,2.006,1.599,2.608&#10;&#9;&#9;&#9;&#9;&#9;c0.999,0.607,0.999,1.204,0.999,3.012c0,1.799-1.794,1.996-3.604,3.414c-1.811,1.404-3.207,0.999-4.214,0.79&#10;&#9;&#9;&#9;&#9;&#9;c-1.006-0.2-3.812,0-3.812,0s-1.399-1.399-2.805-0.2c-1.404,1.206-3.007,1.406-2.196,2.21c0.792,0.802-0.019,2.213-1.016,3.019&#10;&#9;&#9;&#9;&#9;&#9;c-1.002,0.794,2.003,0.794-0.795,3.797c-2.817,3.007-2.21,2.615-4.014,3.417c-1.811,0.799-3.012-1.406-4.404,0.197&#10;&#9;&#9;&#9;&#9;&#9;c-1.408,1.609-0.214,0.804-1.408,1.609c-1.216,0.79,1.592,4.811-1.416,4.811c-3.007,0-5.206-0.804-5.612,1.401&#10;&#9;&#9;&#9;&#9;&#9;c-0.39,2.206-0.198,2.403-2.003,3.21c-1.811,0.802-0.405,2.206-2.408,5.013c-1.998,2.808-2.605,7.419,0,8.223&#10;&#9;&#9;&#9;&#9;&#9;c2.605,0.8,3.207-0.804,3.617,1.204c0.405,1.994-0.195,7.012,1.803,7.012c1.996,0,2.391-1.601,4.409-1.192&#10;&#9;&#9;&#9;&#9;&#9;c2.001,0.393,7.423,2.796,8.825,3.205c1.399,0.4,0.595,2.208,3.003,2.405c2.408,0.207,5.023,1.202,5.422,2.8&#10;&#9;&#9;&#9;&#9;&#9;c0.402,1.608,1.999,0.814,3.409,1.009c1.401,0.198,5.206-2.008,6.415,0.198c1.204,2.213-0.799,3.205,0,5.42&#10;&#9;&#9;&#9;&#9;&#9;c0.804,2.201-0.198,4.409,1.011,5.418c1.189,0.997,1.794,1.194,2.403,1.996c0.587,0.811,2.803,1.611,2.803,3.215&#10;&#9;&#9;&#9;&#9;&#9;c0,1.592,1.204-2.603,3.217-1.406c1.989,1.209,1.796-1.197,2.396-3.01c0.604-1.803-1.808-3.402-1.399-6&#10;&#9;&#9;&#9;&#9;&#9;c0.404-2.624-2.206-3.617,0.197-4.625c2.408-1.006,6.41-3.01,6.215-6.217c-0.2-3.214-4.609-9.429-5.613-9.829&#10;&#9;&#9;&#9;&#9;&#9;c-0.997-0.397-1.796-3.609,0.795-3.609c2.617,0,3.823-1.599,3.222-2.808c-0.604-1.209-2.201-4.204-1.409-6.01&#10;&#9;&#9;&#9;&#9;&#9;c0.804-1.815-3.003-4.618,1.004-5.62c4.002-0.999,8.618,1.206,9.222,1.002c0.611-0.198,1.596-1.604,3.612-0.604&#10;&#9;&#9;&#9;&#9;&#9;c1.999,1.004,3.804,3.027,5.215,3.407c1.409,0.404-2.408,1.611,1.204,2.206c3.607,0.612,4.209-0.193,5.211,1.006&#10;&#9;&#9;&#9;&#9;&#9;c1.006,1.206-0.792,1.206-0.402,3.814c0.402,2.603,1.601,2.81,1.206,4.604c-0.409,1.811,1.204-0.395,2.803,1.608&#10;&#9;&#9;&#9;&#9;&#9;c1.606,2.003,3.019,2.403,3.409,1.792c0.405-0.573,1.214-3.193,2.61-2.389c1.406,0.8,3.405-0.404,3.017-2.405&#10;&#9;&#9;&#9;&#9;&#9;c-0.409-2.006-0.409-3.619,1.202-3.817c1.589-0.195,3.405,1.401,3.804,2.215c0.395,0.797,0.597,3.4,1.604,4.007&#10;&#9;&#9;&#9;&#9;&#9;c1.006,0.597,1.806,5.006,3.609,6.015c1.806,1.009,2.008,2.812,1.596,3.602c-0.395,0.809-3.4,1.011-1.984,1.813&#10;&#9;&#9;&#9;&#9;&#9;c1.401,0.804,3.795,1.204,4.407,1.411c0.602,0.185,3.405,1.192,3.8,1.994c0.402,0.802,4.216,3.821,5.225,3.429&#10;&#9;&#9;&#9;&#9;&#9;c0.997-0.421,1.801,1.184,1.801,1.789c0,0.607-0.804,2.008,0.602,2.405c1.399,0.414,1.996-1.404,2.8,0&#10;&#9;&#9;&#9;&#9;&#9;c0.807,1.404,0.807,2.218,1.014,3.21c0.198,1.006-0.207,4.418-2.617,6.02c-2.405,1.608-4.404-0.212-6.012,1.204&#10;&#9;&#9;&#9;&#9;&#9;c-1.599,1.389-1.599,3.207-4.019,3.405c-2.396,0.193-6.417,0.412-7.211,0.412s-3.617-1.214-6.217-0.412&#10;&#9;&#9;&#9;&#9;&#9;c-2.605,0.804-8.028,0.6-9.229,3.203c-1.199,2.617-3.407-1.194-6.422,4.613c-2.991,5.825-4.411,5.02-4.411,5.02&#10;&#9;&#9;&#9;&#9;&#9;s4.411-4.021,7.021-5.22c2.612-1.206,7.214-4.202,9.229-3.404c2.001,0.804,4.414,1.004,4.414,2.198&#10;&#9;&#9;&#9;&#9;&#9;c0,1.206-1.806,2.615-3.012,3.014c-1.206,0.409,0.209,0.804,0.599,1.604c0.407,0.804-0.997,2.408-0.197,3.224&#10;&#9;&#9;&#9;&#9;&#9;c0.804,0.778,1.611,1.594,2.61,1.794c1.002,0.207,1.002-1.613,3.005-1.194c2.008,0.395,2.822,0.178,3.405,0.783&#10;&#9;&#9;&#9;&#9;&#9;c0.604,0.619-2.408,1.413-4.411,2.015c-1.998,0.602,4.216,0.198,4.216,0.198s2.218-0.39,2.218-1.401&#10;&#9;&#9;&#9;&#9;&#9;c0-1.009-0.621-2.391,1.189-3.01c1.801-0.6,2.015,0.619,2.21,1.81c0.202,1.199,0.795,1.601,1.401,1.601&#10;&#9;&#9;&#9;&#9;&#9;c0.592,0-0.407,2.401-1.199,2.603c-0.804,0.207-1.199-1.604-3.014-0.4c-1.792,1.204-2.61,3.01-5.603,3.207&#10;&#9;&#9;&#9;&#9;&#9;c-3.017,0.207-3.609,0.809-5.422,2.413c-1.804,1.604-3.414,2.596-4.012,1.991c-0.599-0.58-1.004-3.595,0.207-4.404&#10;&#9;&#9;&#9;&#9;&#9;c1.197-0.804,3.007-2.201,3.007-2.201l-4.014-0.607c0,0-2.001,0.409-2.41,1.011c-0.405,0.595-0.604,2.605-1.397,2.998&#10;&#9;&#9;&#9;&#9;&#9;c-0.811,0.405-3.814,0.811-5.22,1.211c-1.397,0.395-5.81,6.217-4.026,7.611c1.825,1.411,0.626,2.006-2.993,2.213&#10;&#9;&#9;&#9;&#9;&#9;c-3.609,0.207-4.618,0.809-6.412,2.812c-1.815,1.998-0.621,1.611-2.213,3.402c-1.601,1.818-0.602,3.412-1.601,3.821&#10;&#9;&#9;&#9;&#9;&#9;c-1.016,0.395-0.607,1.803-1.813,3.595c-1.201,1.82-3.804,1.82-2.391,3.612c1.397,1.813,1.994,3.624,0.794,4.009&#10;&#9;&#9;&#9;&#9;&#9;c-1.202,0.402-3.01,0.807-2.812,2.615c0.2,1.81-4.014,2.008-5.013,3.202c-1.002,1.204-4.618,5.013-7.031,5.622&#10;&#9;&#9;&#9;&#9;&#9;c-2.398,0.609-3.202,2.612-2.6,5.218c0.612,2.601,0.202,1.998,1.416,4.206c1.184,2.215,1.599,4.418,1.796,6.008&#10;&#9;&#9;&#9;&#9;&#9;c0.207,1.611,1.209,2.225,1.406,3.617c0.2,1.411-0.809,3.414-1.604,4.011c-0.799,0.602-2.208-0.597-3.809-3.205&#10;&#9;&#9;&#9;&#9;&#9;c-1.594-2.61-3.01-3.807-3.409-5.82c-0.405-2.001-1.004-4.611-2.008-6.012c-0.997-1.399-2.41-1.606-3.405-0.604&#10;&#9;&#9;&#9;&#9;&#9;c-1.006,1.002-4.209-2.813-7.019-2.201c-2.805,0.59-3.612,0.193-5.627,1.199c-1.989,1.002-4.402,5.223-7.411,3.809&#10;&#9;&#9;&#9;&#9;&#9;c-3.01-1.401-3.202-3.01-4.816-2.6c-1.609,0.397-2.796-0.802-5.011,1.002c-2.201,1.808-1.399,3.407-4.818,3.012&#10;&#9;&#9;&#9;&#9;&#9;c-3.409-0.407-3.609,2.791-3.609,4.409c0,1.608,1.413,2.605-0.604,4.811c-1.999,2.201,0.604,1.197-0.795,3.799&#10;&#9;&#9;&#9;&#9;&#9;c-1.411,2.613-0.392,5.021,0.405,7.833c0.799,2.81-0.2,3.602,1.806,5.82c2.001,2.191,1.806,5.408,4.199,6.21&#10;&#9;&#9;&#9;&#9;&#9;c2.418,0.809,3.821,0.407,5.632,0.407c1.806,0,2.998-2.405,4.811-0.205c1.804,2.198,2.199-0.607,3.402-2.008&#10;&#9;&#9;&#9;&#9;&#9;c1.204-1.409,1.806-1.611,1.611-4.404c-0.215-2.817,0.39-3.01,2.001-3.01c1.611,0,3.012,0.385,4.604-0.609&#10;&#9;&#9;&#9;&#9;&#9;c1.611-0.994,3.207-0.595,4.016,1.206c0.809,1.808,0,1.999-1.204,4.214c-1.202,2.201,0.395,6.01-2.203,6.41&#10;&#9;&#9;&#9;&#9;&#9;c-2.61,0.4-0.609,3.222-1.811,4.816c-1.187,1.615,0.614,3.612,1.606,3.207c1.011-0.402,2.003-1.406,4.021-1.204&#10;&#9;&#9;&#9;&#9;&#9;c2.003,0.207,4.608-0.797,6.814,0.616c2.215,1.382,3.405-0.212,4.209,1.594c0.799,1.801-0.4,4.009-0.804,5.615&#10;&#9;&#9;&#9;&#9;&#9;c-0.397,1.599-2.201,5.417-0.592,7.421c1.596,1.999,2.393,4.411,3.597,5.22c1.209,0.795,3.409,1.596,4.623,1.382&#10;&#9;&#9;&#9;&#9;&#9;c1.184-0.183,4.604-2.586,6.419-1.999c1.796,0.616,4.204,2.813,4.618,3.614c0.39,0.797-3.617,0.2-3.617,0.2&#10;&#9;&#9;&#9;&#9;&#9;s-1.608-2.403-2.61-1.194c-0.999,1.194-4.618,1.801-3.409,2.603c1.204,0.802,2.808,1.806,0.602,2.401&#10;&#9;&#9;&#9;&#9;&#9;c-2.21,0.597-2.42,0-3.217-1.998c-0.804-2.01-3.604-2.605-5.013-2.605c-1.401,0-3.207-2.807-4.007-3.414&#10;&#9;&#9;&#9;&#9;&#9;c-0.799-0.597-2.603-2.615-3.005-1.009c-0.4,1.616-2.21-1.996-2.21-2.605c0-0.595,0.807-1.394,0.597-2.805&#10;&#9;&#9;&#9;&#9;&#9;c-0.193-1.401-1.204-3.412-1.799-3.809c-0.59-0.39-2.01-0.992-4.418-0.992c-2.405,0-6.003-0.212-6.614-0.814&#10;&#9;&#9;&#9;&#9;&#9;c-0.599-0.595-9.212-4.406-10.029-6.024c-0.794-1.599-6.217-1.994-7.418-0.78c-1.197,1.189-9.429-2.408-10.229-3.024&#10;&#9;&#9;&#9;&#9;&#9;c-0.79-0.607-5.408-3.205-8.223-4.209c-2.803-1.011-6.207-3.405-7.633-3.617c-1.389-0.198-2.191-4.402-2.389-6.819&#10;&#9;&#9;&#9;&#9;&#9;c-0.207-2.396-1.009-5.61-3.01-6.8c-2.003-1.214-4.811-4.83-5.62-6.227c-0.802-1.406-3.412-3.01-4.209-3.01&#10;&#9;&#9;&#9;&#9;&#9;c-0.799,0,0-4.618-2.605-4.82c-2.605-0.193-2.408-1.397-3.207-3.2c-0.809-1.796-2.808-1.611-3.419-4.014&#10;&#9;&#9;&#9;&#9;&#9;c-0.595-2.41-1.994-4.811-4.192-5.606c-2.213-0.819-3.624-0.604-3.624-0.604s0.809,3.799,1.204,4.409&#10;&#9;&#9;&#9;&#9;&#9;c0.4,0.6,2.615,2.608,3.816,4.019c1.202,1.387,2.201,3.995,2.796,5.613c0.612,1.608,2.203,0.994,3.017,2.798&#10;&#9;&#9;&#9;&#9;&#9;c0.797,1.801-0.407,4.007,1.611,5.021c1.998,1.002,1.803,3.005,2.408,3.405c0.588,0.402,1.589,0.609,1.589,2.613&#10;&#9;&#9;&#9;&#9;&#9;c0,1.998-3.997,0-5.206-1.609c-1.204-1.601-1.806-4.218-3.819-5.62c-2.003-1.387-0.195-4.211-2.596-4.999&#10;&#9;&#9;&#9;&#9;&#9;c-2.413-0.811-6.222-3.622-4.416-4.228c1.803-0.602,2.798-1.394,0-4.209c-2.813-2.803-6.424-6.607-7.014-8.822&#10;&#9;&#9;&#9;&#9;&#9;c-0.611-2.201-0.411-6.02-3.417-6.412c-3.012-0.409-7.818-4.423-9.227-6.417c-1.406-2.013-2.805-5.22-4.616-8.223&#10;&#9;&#9;&#9;&#9;&#9;c-1.806-3.01-3.807-5.42-3.807-7.226c0-1.801-0.997-3.804-1.401-6.414c-0.395-2.613-1.611-3.999-1.011-5.625&#10;&#9;&#9;&#9;&#9;&#9;c0.616-1.594,2.018-0.794,1.815-3.807c-0.2-2.998,0-9.208-0.4-10.818c-0.405-1.613-0.205-1.613-1.416-3.826&#10;&#9;&#9;&#9;&#9;&#9;c-1.204-2.198,0.219-3.799,1.211-2.598c1.009,1.214,0-0.397,1.799,1.801c1.815,2.21,1.608,3.222,2.812,2.603&#10;&#9;&#9;&#9;&#9;&#9;c1.209-0.585-0.402-3.788-0.402-4.404c0-0.604-1.611-2.81-2.198-3.405c-0.602-0.607-11.033-5.813-11.033-5.813&#10;&#9;&#9;&#9;&#9;&#9;s-3.612,0.602-3.414-1.204c0.193-1.806,1.204-2.22,0.193-3.819c-0.99-1.599-2.196-2.805-3.01-3.409&#10;&#9;&#9;&#9;&#9;&#9;c-0.785-0.609-1.999-1.194-2.596-2.803c-0.59-1.604-0.59-4.021-1.608-5.42c-0.997-1.397-1.796-1.596-3.4-2.003&#10;&#9;&#9;&#9;&#9;&#9;c-1.613-0.407-1.613-0.407-2.816-0.202c-1.203,0.202-3.589-0.205-3.409-2.201c0.213-2.006,0-3.012,0-3.012l-2.602-1.404&#10;&#9;&#9;&#9;&#9;&#9;l-2.408,1.404c0,0-1.612-6.024-1.209-7.024c0.409-0.994,0.606-1.794-0.403-2.198c-0.987-0.404-1.994-1.406-3.205-1.011&#10;&#9;&#9;&#9;&#9;&#9;c-1.203,0.404-2.801,0-4.411-1.606c-1.604-1.601-10.427-2.798-12.031-2.998c-1.604-0.198-4.41-1.401-6.821-2.396&#10;&#9;&#9;&#9;&#9;&#9;c-2.412-1.009-10.233-3.422-10.828-2.22c-0.597,1.211-1.8-0.799-2.203,2.008c-0.404,2.808-2.002,3.01-3.211,3.01&#10;&#9;&#9;&#9;&#9;&#9;c-1.203,0-2.602,0-3.201,0c-0.609,0-1.812-0.6-2.01,0.994c-0.202,1.601-1.004,3.207-1.004,3.207s-1.412-7.406-0.6-7.406&#10;&#9;&#9;&#9;&#9;&#9;c0.799,0,1.802-0.814,2.203-1.613c0.401-0.795,0.401-2.817-0.199-3.205c-0.603-0.407-4.413,1.803-4.819,2.608&#10;&#9;&#9;&#9;&#9;&#9;c-0.39,0.804-2,2.617-1.797,5.013c0.185,2.405-0.202,4.011-1.405,4.409c-1.209,0.402-0.998,1.411-3.21,3.207&#10;&#9;&#9;&#9;&#9;&#9;c-2.202,1.803-2.213,2.006-3.211,2.41c-0.996,0.397-2.604,1.002-3.798,1.401c-1.212,0.409-0.62,1.409-0.814,2.201&#10;&#9;&#9;&#9;&#9;&#9;c-0.196,0.814-1.598,1.604-1.598,1.604s-1.416,0.417-2.815,0.809c-1.397,0.4-5.207,2.208-5.207,2.208s-4.211,3.614-6.017,3.002&#10;&#9;&#9;&#9;&#9;&#9;c-1.808-0.592-2.62,0.202-4.214,1.406c-1.612,1.221-1.397-2.405-0.398-2.812c0.998-0.395,4.804-1.596,6.011-2.598&#10;&#9;&#9;&#9;&#9;&#9;c1.203-1.004,4.618-2.008,5.207-3.007c0.616-1.002,1.61-1.209,3.022-2.206c1.397-1.006,2.796-1.808,3.405-3.819&#10;&#9;&#9;&#9;&#9;&#9;c0.6-2.003,1.407-5.612-0.609-4.007c-1.996,1.611-2.796,1.806-4.208,1.194c-1.402-0.592-1.803-1.194-3.409-1.194&#10;&#9;&#9;&#9;&#9;&#9;c-1.601,0-2,1.194-2.401-0.999c-0.397-2.208-3.005-3.817-1.606-6.012c1.397-2.21-1.203,4.007-3.81,3.205&#10;&#9;&#9;&#9;&#9;&#9;c-2.599-0.811-2.599-3.407-4.618-3.407c-1.996,0,1.804-2.812,0.201-3.01c-1.601-0.209-3.813-4.011-2.197-4.816&#10;&#9;&#9;&#9;&#9;&#9;c1.606-0.794,4.211-3.409,3.8-4.418c-0.402-1.004,0-0.197,2.01,0.195c2.007,0.405,3.815-0.588,4.615-1.801&#10;&#9;&#9;&#9;&#9;&#9;c0.799-1.194,3.412,0,4.41-0.992c1.004-1.002-1.806-3.419-1.61-4.009c0.205-0.604-0.998-2.213-4.398,0&#10;&#9;&#9;&#9;&#9;&#9;c-3.415,2.206-1.01-0.811-3.013-1.009c-2.014-0.197-4.425,1.009-5.218,1.009c-0.801,0-3.613-1.608-2.805-3.229&#10;&#9;&#9;&#9;&#9;&#9;c0.802-1.589-1.005-2.588-3.199-2.588c-2.213,0,0.194-1.609,2.797-2.61c2.611-1.009,4.808-0.809,5.215-2.008&#10;&#9;&#9;&#9;&#9;&#9;c0.412-1.206,3.005-1.799,3.601-1.009c0.607,0.809-0.793,2.418,0.205,3.214c1.003,0.804,2.812-0.197,3.614,0.2&#10;&#9;&#9;&#9;&#9;&#9;c0.796,0.4,0.595,1.606,1.797,1.401c1.219-0.193,1.219-1.601,2.812-2.608c1.598-0.999,5.419-0.79,3.809-2.003&#10;&#9;&#9;&#9;&#9;&#9;c-1.595-1.199-6.412,0.804-6.809-0.607c-0.409-1.404,0.594-3.205-2.806-2.603c-3.415,0.602-5.419-2.396-7.833-3.202&#10;&#9;&#9;&#9;&#9;&#9;C54.87,427.408,51.857,424.593,53.563,424.09z" style="fill: rgb(19, 141, 117);"/>
				<path fill="#138D75" d="M356.791,336.262c0,0,4.512-1.204,6.92-1.204c2.403,0,7.517,2.099,8.43,2.099&#10;&#9;&#9;&#9;&#9;&#9;c0.898,0,3.597,0.607,5.097,0.896c1.512,0.306-2.687,5.122-5.714,4.816c-2.993-0.294-12.631,1.811-14.43,2.408&#10;&#9;&#9;&#9;&#9;&#9;c-1.792,0.609,3.313,0.908,5.403,0.308c2.119-0.602,6.32-0.905,6.32-0.905s-7.219,5.114-10.525,5.415&#10;&#9;&#9;&#9;&#9;&#9;c-3.318,0.306-8.413,3.903-9.925,5.112c-1.503,1.204-3.005,3.614-5.721,3.306c-2.702-0.296-4.216,0-6.301,0.609&#10;&#9;&#9;&#9;&#9;&#9;c-2.117,0.6,0,2.109-3.316,1.806c-3.315-0.294-3.915,1.804-2.109,2.1c1.806,0.299,5.114-0.602,5.714,0.893&#10;&#9;&#9;&#9;&#9;&#9;c0.602,1.51-1.201,3.318-2.109,4.226c0,0-4.507,3.602-7.52,2.702c-3.005-0.898,0.607,4.821-2.706,4.214&#10;&#9;&#9;&#9;&#9;&#9;c-3.304-0.609-2.408,2.102-1.194,2.711c1.194,0.597,6.61-2.413,4.507,0c-2.119,2.408-4.507,4.202-6.617,3.607&#10;&#9;&#9;&#9;&#9;&#9;c-2.107-0.597-3.014,0-4.515,0c-1.51,0-1.51-1.806-5.114-2.109c-3.609-0.303-4.813,1.211-7.221,1.211&#10;&#9;&#9;&#9;&#9;&#9;c-2.408,0-7.219-1.808-9.323-1.514c-2.112,0.303,0,2.413-2.112,0.303c-2.1-2.107,0.614-4.818,2.112-4.818s3.915,3.007,3.311,0&#10;&#9;&#9;&#9;&#9;&#9;c-0.609-2.998-3.908-3.903-2.415-4.813c1.514-0.891,4.512-1.194,5.716,0.597c1.199,1.818-1.502,1.219,1.199,1.818&#10;&#9;&#9;&#9;&#9;&#9;c2.711,0.59,3.318-2.104,3.614-3.007c0.306-0.9-3.614-0.9-3.614-0.9s-2.403,0.602-3.602,0c-1.204-0.602-3-2.413-3-2.413&#10;&#9;&#9;&#9;&#9;&#9;s-2.706-0.901-3.628,0.607c-0.879,1.502-1.192,3.002-2.396,2.706c-1.194-0.299-1.505-0.9-3.612-1.503&#10;&#9;&#9;&#9;&#9;&#9;c-2.099-0.616-4.502-1.204-6.617-2.114c-2.099-0.903-2.702-3.607-1.502-3.607c1.209,0,4.51-0.896,5.403-1.189&#10;&#9;&#9;&#9;&#9;&#9;c0.913-0.308-7.214-1.512-8.11-1.216c-0.905,0.304-2.413,0.605-3.313-0.296c-0.896-0.905-1.202-1.512-1.202-2.415&#10;&#9;&#9;&#9;&#9;&#9;c0-0.898-1.505-3.002-1.505-3.002s2.405-1.204,3.308-1.505c0.91-0.301,2.41-1.799,2.41-1.799l-0.291-2.114&#10;&#9;&#9;&#9;&#9;&#9;c0,0-0.915-2.102,2.099-2.102c3.005,0,3.313,0.301,4.816,0.898c1.502,0.602,0,1.806,2.403,3.318&#10;&#9;&#9;&#9;&#9;&#9;c2.393,1.498,3.012,2.391,5.408,2.692c2.413,0.306,6.915-0.592,6.915-0.592s0.614-3.012-2.706-3.012&#10;&#9;&#9;&#9;&#9;&#9;c-3.301,0-5.411-0.291-4.503-1.512c0.891-1.197,1.801-2.09,0.597-2.391c-1.194-0.308-6.005-1.806-6.005-1.806&#10;&#9;&#9;&#9;&#9;&#9;s5.702-2.709,7.209-2.408c1.5,0.296,5.109-0.597,6.313-1.204c1.214-0.602,2.408-2.114,5.11-2.403&#10;&#9;&#9;&#9;&#9;&#9;c2.711-0.308,3.318,0.289,5.726,0.893c2.403,0.609,3.008-3.003,6.316-3.301c3.306-0.299,5.41-0.908,7.216-1.209&#10;&#9;&#9;&#9;&#9;&#9;c1.815-0.306,6.92-1.204,9.629-0.604c2.709,0.604,7.231-0.6,10.537-0.296c3.306,0.296,6.918-0.612,8.122,0.595&#10;&#9;&#9;&#9;&#9;&#9;c1.189,1.216,2.097,1.813,3.299,1.813C354.686,335.655,356.791,336.262,356.791,336.262z" style="fill: rgb(19, 141, 117);"/>
				<path fill="#138D75" d="M302.35,396.121c0,0-5.422-0.304-8.124,2.109c-2.702,2.403-5.112,4.801-5.112,6.01&#10;&#9;&#9;&#9;&#9;&#9;c0,1.194-0.301,1.194-0.612,3.612c-0.301,2.408,2.418,2.709,3.308,2.709c0.901,0,5.714,0.301,6.017,1.5&#10;&#9;&#9;&#9;&#9;&#9;c0.306,1.209-2.711,1.209-4.816,0.901c-2.092-0.294-2.711,2.102-0.896,2.408c1.796,0.308,3.602,0.607,5.117,0.91&#10;&#9;&#9;&#9;&#9;&#9;c1.505,0.296,5.117,1.791,5.117,1.791s2.995-1.495,6.906-0.59c3.925,0.893,7.517,1.794,7.517,1.794s1.209-3.299,3.313-2.095&#10;&#9;&#9;&#9;&#9;&#9;c2.119,1.194,1.503-2.709,4.821-1.503c3.306,1.197,3.005,4.209,5.413,5.117c2.408,0.893,4.811,0.893,6.027,3.003&#10;&#9;&#9;&#9;&#9;&#9;c1.187,2.104,1.789,3.896,4.808,4.512c3,0.597,2.694,4.811,1.796,6.311c-0.893,1.51-2.706,1.214-4.52,3.609&#10;&#9;&#9;&#9;&#9;&#9;c-1.796,2.408,3.626,2.408,0.6,3.604c-2.995,1.216-6.906,1.813-8.712,1.216c-1.813-0.602-3-2.109-3.913,0&#10;&#9;&#9;&#9;&#9;&#9;c-0.913,2.095-2.405,3.313-1.5,3.607c0.9,0.303,2.706,1.801,4.808,1.206c2.107-0.607,2.711-2.718,6.02-2.413&#10;&#9;&#9;&#9;&#9;&#9;c3.296,0.301,3.913,3.007,7.216,4.216c3.32,1.194-1.498,2.711,1.806,3.612c3.303,0.896,3.01,1.789,6.024,2.102&#10;&#9;&#9;&#9;&#9;&#9;c3.005,0.296,3.906,3.316,6.913,3.316c3.012,0,3.316-2.413,0.6-3.922c-2.702-1.495-0.308-3.913,1.204-3.008&#10;&#9;&#9;&#9;&#9;&#9;c1.512,0.896,4.214,3.614,5.417,3.614c1.199,0,1.199-4.519,0.905-5.406c-0.303-0.91,1.488-2.112-0.905-3.318&#10;&#9;&#9;&#9;&#9;&#9;c-2.417-1.206-3.007-2.107-5.417-3.313c-2.403-1.197-4.522-2.706-3.01-3.908c1.498-1.206-0.6-3.602,2.099-3.012&#10;&#9;&#9;&#9;&#9;&#9;c2.716,0.602,2.716,0.308,4.219,2.413c1.505,2.104,1.204,2.998,3.612,3.311c2.401,0.301,2.114,1.5,3.308,2.403&#10;&#9;&#9;&#9;&#9;&#9;c1.209,0.9,1.799-3.007,3-4.507c1.206-1.51,1.512,0,2.408-3.017c0.915-3.012,1.209-2.711-2.095-3.308&#10;&#9;&#9;&#9;&#9;&#9;c-3.313-0.597-8.423-5.112-10.542-5.711c-2.09-0.597-3.304-2.104-4.512-3.002c-1.194-0.913-0.291-2.413,0.602-3.614&#10;&#9;&#9;&#9;&#9;&#9;c0.91-1.202,2.119-0.91-0.294-3.014c-2.405-2.095-2.097-0.893-4.816-3.311c-2.697-2.396-0.905-2.396-4.811-3.003&#10;&#9;&#9;&#9;&#9;&#9;c-3.91-0.597-2.396-2.704-4.209-3c-1.811-0.31-6.617,0.6-8.423-1.512c-1.806-2.114-0.602-5.408-2.403-5.105&#10;&#9;&#9;&#9;&#9;&#9;c-1.81,0.299,0,0-3.917-2.417c-3.908-2.408-2.709-3.005-6.922-3.005c-4.214,0-6.915-0.607-7.821,1.209&#10;&#9;&#9;&#9;&#9;&#9;c-0.901,1.796-1.493-3.306-3.898-2.413C308.656,396.706,307.442,399.131,302.35,396.121z" style="fill: rgb(19, 141, 117);"/>
				<path fill="#138D75" d="M297.524,451.181c0,0,1.214-3.318,2.707-3.628c1.507-0.296-0.896-3.906,1.808-5.719&#10;&#9;&#9;&#9;&#9;&#9;c2.709-1.791,3.609-1.197,4.209,0c0.602,1.216-0.296,2.418,4.206,2.121c4.517-0.308,1.209,2.702,4.517,3.908&#10;&#9;&#9;&#9;&#9;&#9;c3.316,1.201,4.517,1.201,3.917,2.709c-0.602,1.502-5.107,2.09-6.918,0c-1.811-2.114-6.02-0.905-6.626,0.609&#10;&#9;&#9;&#9;&#9;&#9;c-0.597,1.481-1.801,4.199-2.995,3.593C301.141,454.174,300.544,448.149,297.524,451.181z" style="fill: rgb(19, 141, 117);"/>
				<path fill="#138D75" d="M179.613,403.932c0,0,1.792-2.697,2.396-4.199c0.6-1.502,2.415-2.711,2.415-4.218&#10;&#9;&#9;&#9;&#9;&#9;s-4.206-3.903-1.199-4.209c3.005-0.304,3.906-0.304,5.711-0.304c1.796,0,6.313-1.201,7.219,0.609&#10;&#9;&#9;&#9;&#9;&#9;c0.901,1.808,3.308,3.6,4.51,3.6c1.206,0,4.211-2.393,6.012-1.204c1.82,1.204,4.825,3.612,4.825,3.612l-5.415,3.318&#10;&#9;&#9;&#9;&#9;&#9;c-3.012,0.299-6.624,1.204-7.529,2.995c-0.898,1.811-1.502,4.218-3.308,4.218c-1.806,0-2.104,0-6.015,1.806&#10;&#9;&#9;&#9;&#9;&#9;c-3.91,1.801-3.308-1.206-5.105-1.806C182.317,407.549,178.703,404.842,179.613,403.932z" style="fill: rgb(19, 141, 117);"/>
				<path fill="#138D75" d="M201.254,407.549c0,0-0.59-2.413,1.512-3c2.109-0.616,2.109-3.012,6.925-3.915&#10;&#9;&#9;&#9;&#9;&#9;c4.811-0.901,3.612,2.711,6.01,2.398c2.408-0.289,1.211-3.005,3.915-2.702c2.711,0.304,4.206,1.206,4.206,2.702&#10;&#9;&#9;&#9;&#9;&#9;c0,1.517,2.707,2.403,2.707,2.403s-0.593-4.498,1.813-4.801c2.413-0.304,3.01,9.027,5.406,8.724&#10;&#9;&#9;&#9;&#9;&#9;c2.41-0.296,1.512-3.614,1.206-5.719c-0.299-2.102-2.998-5.114-0.299-5.408c2.706-0.308,2.706,1.502,3.915,1.796&#10;&#9;&#9;&#9;&#9;&#9;c1.204,0.303-1.209-3.612,0.896-3.32c2.121,0.315,3.92,0.315,4.813,1.524c0.903,1.194-3,3.91-2.102,5.408&#10;&#9;&#9;&#9;&#9;&#9;c0.898,1.498,0,3.311,1.493,6.022c1.512,2.699,1.219,3.908,3.626,4.211c2.403,0.294,6.007,1.806,6.92,2.408&#10;&#9;&#9;&#9;&#9;&#9;c0.893,0.595,2.396,1.201,2.396,2.995c0,1.82-4.804-2.095-6.007,0c-1.209,2.114-2.721,2.114-2.721,3.01&#10;&#9;&#9;&#9;&#9;&#9;c0,0.91,6.621-2.097,4.517,0.306c-2.097,2.413-7.82,1.804-7.82,1.804s-2.403-3.915-4.195-3.915&#10;&#9;&#9;&#9;&#9;&#9;c-1.815,0-1.209,0.315-7.236,2.112c-6.012,1.804-7.515,4.51-11.736,3.017c-4.209-1.517-3.612-4.512-6.311-4.512&#10;&#9;&#9;&#9;&#9;&#9;c-2.707,0-6.92-0.301-8.721-0.908c-1.813-0.607-2.408-3.612-2.408-3.612s5.413-1.512,8.721-0.6&#10;&#9;&#9;&#9;&#9;&#9;c3.318,0.898,6.015,1.799,4.821-1.505c-1.197-3.306-2.116-1.202-5.721-1.202c-3.612,0-4.211,1.202-6.321,0.299&#10;&#9;&#9;&#9;&#9;&#9;c-2.097-0.901-5.408,0-3.311-1.507c2.109-1.5,2.711-1.199,4.816-1.801c2.114-0.6,3.612,0.905,2.114-0.6&#10;&#9;&#9;&#9;&#9;&#9;C207.585,408.151,201.871,408.75,201.254,407.549z" style="fill: rgb(19, 141, 117);"/>
				<path fill="#138D75" d="M188.827,382.276c0,0-2.805-1.185-0.604-2.003c2.21-0.807,3.414-1.392,4.423-1.599&#10;&#9;&#9;&#9;&#9;&#9;c0.999-0.202,1.803-1.401,2.8-2.201c1.009-0.804,0.602-2.218,3.814-2.612c3.212-0.407,5.215,0.802,6.415,0&#10;&#9;&#9;&#9;&#9;&#9;c1.209-0.811,1.613-2.608,2.413-1.806c0.797,0.802,1.006,1.806,2.201,2.011c1.214,0.19-1.006,0.997-1.599,1.392&#10;&#9;&#9;&#9;&#9;&#9;c-0.602,0.409-0.602,0-0.602,1.808c0,1.801-2.001,2.201-2.813,2.405c-0.799,0.205-1.204-2.798-2.995-2.405&#10;&#9;&#9;&#9;&#9;&#9;c-1.823,0.407-1.613,0.999-2.418,2.201c-0.804,1.206,1.392,4.221-1.397,3.614c-2.815-0.607-5.218-2.598-5.82-1.004&#10;&#9;&#9;&#9;&#9;&#9;C192.047,383.687,188.827,382.276,188.827,382.276z" style="fill: rgb(19, 141, 117);"/>
				<path fill="#138D75" d="M206.677,383.48c0,0,0.207-2.6,2.208-2.6s0.397-2.615,3.812-1.813c3.417,0.809,1.806,2.218,4.416,2.025&#10;&#9;&#9;&#9;&#9;&#9;c2.6-0.212,3.207-0.212,4.416,0.985c1.199,1.206,0.8,4.216,2.403,3.814c1.599-0.397,8.025-2.41,6.005-2.81&#10;&#9;&#9;&#9;&#9;&#9;c-1.998-0.395,0-3.005-2.389-3.614c-2.408-0.585,2.798-1.794,2.993-3.19c0.214-1.414,2.015,0.794,2.405,2.605&#10;&#9;&#9;&#9;&#9;&#9;c0.409,1.792-1.204,1.998,0.602,3.195c1.811,1.206,3.012,1.611,4.021,1.811c1.002,0.197,0.193-2.213,1.608-1.611&#10;&#9;&#9;&#9;&#9;&#9;c1.392,0.607,3.198,2.001,2.8,2.812c-0.39,0.802-0.811-0.402-2.8,2.006c-2.013,2.401-2.413,3.609-4.618,2.196&#10;&#9;&#9;&#9;&#9;&#9;c-2.205-1.384-5.817-1.384-7.219-0.185c-1.404,1.206-3.812,1.796-6.217,2.413c-2.413,0.592-6.622-0.212-6.824-1.016&#10;&#9;&#9;&#9;&#9;&#9;c-0.193-0.797,3.217-1.801,4.825-2.21c1.594-0.385,1.787-0.202,3.409,0c1.594,0.202-1.623-1.399-3.409-1.399&#10;&#9;&#9;&#9;&#9;&#9;c-1.811,0-2.422,1.197-4.021,1.197c-1.599,0,0.4-2.596-1.599-1.594c-2.003,0.992-1.599,2.398-3.614,1.998&#10;&#9;&#9;&#9;&#9;&#9;c-2.001-0.404-2.815-1.601-4.416-1.601C203.874,386.892,203.477,384.489,206.677,383.48z" style="fill: rgb(19, 141, 117);"/>
				<path fill="#138D75" d="M251.809,403.932c0,0-1.404-2.608,0.395-2.396c1.801,0.2,2.61,1.206,3.607,1.399&#10;&#9;&#9;&#9;&#9;&#9;c1.009,0.197,2.413-0.193,2.413-1.399c0-1.206,1.194-2.405-0.804-2.208c-2.001,0.2-1.201,1.996-2.001,0.2&#10;&#9;&#9;&#9;&#9;&#9;c-0.807-1.808,0-2.603,0.799-2.822c0.804-0.193,2.006-1.192,2.598-1.192c0.602,0,1.011,1.411,2.01,1.192&#10;&#9;&#9;&#9;&#9;&#9;c0.999-0.193,1.799-1.594,3.017-1.782c1.206-0.219,2.803,0.59,3.405,0.792c0.6,0.193,0,0.99,0,2.206&#10;&#9;&#9;&#9;&#9;&#9;c0,1.209-2.198,1.189-2.817,2.203c-0.587,1.004-0.587,1.611,0.21,1.811c0.802,0.205,1.811-0.612,2.8,0&#10;&#9;&#9;&#9;&#9;&#9;c1.011,0.595,1.816,1.409,2.018,2.401c0.195,1.011,0.4,2.82-0.414,3.612c-0.79,0.802-2.203,0.409-3.602,1.409&#10;&#9;&#9;&#9;&#9;&#9;c-1.411,0.989-1.411,2.401-2.817,1.808c-1.401-0.604-0.999-2.415-2.196-3.217c-1.204-0.792-1.011-1.202-2.605-1.399&#10;&#9;&#9;&#9;&#9;&#9;c-1.606-0.212-2.6-0.212-3.414-0.212C253.61,406.337,252.801,403.739,251.809,403.932z" style="fill: rgb(19, 141, 117);"/>
				<path fill="#138D75" d="M273.068,408.555c0,0,1.201-1.808,0.195-3.812c-1.006-2.001-1.999-3.807-1.604-5.011&#10;&#9;&#9;&#9;&#9;&#9;c0.402-1.209,0.597-4.218,0.597-4.218s2.408,1.411,3.012,0.811c0.6-0.609-1.606-2.203,0.195-2.413&#10;&#9;&#9;&#9;&#9;&#9;c1.813-0.2,1.613,0.607,4.021,0.607s4.195,0.787,5.61,0.404c1.401-0.404,2.408-0.802,3.407,0.383&#10;&#9;&#9;&#9;&#9;&#9;c1.009,1.206-0.599,1.399-1.813,2.223c-1.194,0.802-2.196,1.799-2.393,2.596c-0.197,0.811,0.198,2.405-2.001,2.213&#10;&#9;&#9;&#9;&#9;&#9;c-2.213-0.197-1.608-2.413-3.421-0.802c-1.796,1.596-2.598,2.001-2.598,2.8c0,0.799,2.001,0.799,1.596,1.613&#10;&#9;&#9;&#9;&#9;&#9;c-0.388,0.79-1.801,0.6-1.801,1.999" style="fill: rgb(19, 141, 117);"/>
				<path fill="#138D75" d="M241.374,361.619l1.608-0.792l3.814-0.404c0,0,0.992,2.396,2.003,2.396c1.002,0,0.193-1.587,2.21-0.995&#10;&#9;&#9;&#9;&#9;&#9;c1.994,0.602,3.207-0.205,4.214,0.602c0.994,0.802,0.994,1.406,1.998,2.206c0.994,0.799,3.015,0.202,3.405,1.209&#10;&#9;&#9;&#9;&#9;&#9;c0.402,0.997-1.811,1.596-0.39,3.207c1.389,1.604,0.39,3.4-1.421,2.6c-1.794-0.799-1.397-2.798-3.195-3.607&#10;&#9;&#9;&#9;&#9;&#9;c-1.813-0.802-3.017-0.802-4.221-0.409c-1.194,0.409-3.612-0.795-4.204-0.795c-0.595,0-1.803,2.013-3.217,0.795&#10;&#9;&#9;&#9;&#9;&#9;c-1.397-1.185-1.604-2.605,0-2.605c1.616,0,3.612,0.814,3.612,0c0-0.792-1.996-1.799-2.62-1.999&#10;&#9;&#9;&#9;&#9;&#9;C244.388,362.818,240.57,363.228,241.374,361.619z" style="fill: rgb(19, 141, 117);"/>
				<path fill="#138D75" d="M263.637,364.833c0,0-0.198-1.606,1.608-1.199c1.796,0.4,3.01-0.407,4.214,0.4&#10;&#9;&#9;&#9;&#9;&#9;c1.199,0.799,0.992,2.198,2.603,2.413c1.601,0.193,2.603,0.193,2.603,0.99c0,0.804-0.794,1.201-0.794,2.41&#10;&#9;&#9;&#9;&#9;&#9;c0,1.202-2.018,0.804-3.212,0.804c-1.199,0-1.613,0.397-2.615,0.602c-1.002,0.202-1.397-2.615-1.397-2.615&#10;&#9;&#9;&#9;&#9;&#9;s0.395-0.795-1.204-1.589C263.844,366.232,263.637,364.833,263.637,364.833z" style="fill: rgb(19, 141, 117);"/>
				<path fill="#138D75" d="M271.457,373.454c0,0,1.002-1.998,2.413-1.998c1.399,0,2.201,0,3.614,0.193&#10;&#9;&#9;&#9;&#9;&#9;c1.389,0.205,3.397-0.193,2.998,0.604c-0.4,0.802-1.608,1.609-2.61,1.609c-1.006,0-1.204-0.407-2.603-0.407&#10;&#9;&#9;&#9;&#9;&#9;C273.87,373.454,271.457,373.454,271.457,373.454z" style="fill: rgb(19, 141, 117);"/>
				<path fill="#138D75" d="M268.645,376.473c0,0-0.39-0.804,2.21-0.607c2.608,0.195,3.207,0.195,4.218,0.41&#10;&#9;&#9;&#9;&#9;&#9;c0.997,0.197,2.993,0.197,3.597,0.997c0.619,0.794-0.395,1.794,0.619,1.998c0.99,0.195,2.796-1.204,3.802-0.799&#10;&#9;&#9;&#9;&#9;&#9;c1.006,0.409,3.198-0.207,4.002,0.409c0.809,0.585-0.597,1.792,0.605,1.792s2.819-0.4,3.407,0.419&#10;&#9;&#9;&#9;&#9;&#9;c0.607,0.792-0.395,2.191-2.803,1.596c-2.41-0.611-4.007-0.002-1.999,0.792c1.999,0.797,4.214-0.597,4.801,0.207&#10;&#9;&#9;&#9;&#9;&#9;c0.607,0.802,0.607,1.599,1.216,1.999c0.599,0.395,1.996-1.002,3.202-0.597c1.202,0.404,3.609,1.406,5.213,0.992&#10;&#9;&#9;&#9;&#9;&#9;c1.613-0.395,3.21-1.592,4.012-1.592c0.799,0,4.214-1.801,5.413-1.409c1.206,0.4,3.019,1.004,4.811,0.807&#10;&#9;&#9;&#9;&#9;&#9;c1.801-0.2,3.607,0.39,5.025,2.003c1.399,1.596-2.015,2.401-1.418,4.209c0.607,1.82,0.212,2.413-1.806,1.82&#10;&#9;&#9;&#9;&#9;&#9;c-2.003-0.614-5.405,0.592-7.012-2.215c-1.601-2.812,1.002,2.215-2.201,1.813c-3.212-0.405-5.62-0.015-7.219,0.183&#10;&#9;&#9;&#9;&#9;&#9;c-1.604,0.219-2.817,0.409-4.623,0.409s-1.806-3.005-3.202-2.206c-1.411,0.799-1.806,1.613-3.005,1.401&#10;&#9;&#9;&#9;&#9;&#9;c-1.209-0.193-2.61-0.804-4.218-0.995c-1.613-0.212-2.998-0.407-3.207-2.02c-0.193-1.604,1.411-2.21-0.193-2.605&#10;&#9;&#9;&#9;&#9;&#9;c-1.613-0.4-1.011-1.999-3.222-3.609c-2.206-1.594-4.401,0-7.011-1.803C269.044,378.472,268.645,377.869,268.645,376.473z" style="fill: rgb(19, 141, 117);"/>
				<path fill="#138D75" d="M244.971,379.066c0,0,1.425-0.802,2.62-0.393c1.209,0.393,3.014,1.808,3.014,1.808&#10;&#9;&#9;&#9;&#9;&#9;c1.796,2.206,0.997,3.807,2.196,3.405c1.204-0.407,0-3.812,1.204-3.614c1.219,0.209,1.011,1.011,2.815,1.611&#10;&#9;&#9;&#9;&#9;&#9;c1.804,0.59-0.768-2.526-0.207-2.817c2.41-1.197,4.214-1.606,5.622-0.999c1.401,0.607,4.002,0,3.807,2.415&#10;&#9;&#9;&#9;&#9;&#9;c-0.195,2.401-1.804,3.205-0.395,4.204c1.394,1.009-1.216,0.402-1.409,2.408c-0.207,2.01,0.193,2.213-2.203,1.606&#10;&#9;&#9;&#9;&#9;&#9;c-2.403-0.611-4.216-0.992-5.013-0.611c-0.804,0.404,1.794-2.008,0.2-2.803c-1.601-0.797-2.812-0.395-4.618-0.198&#10;&#9;&#9;&#9;&#9;&#9;c-1.801,0.198-1.399,0.814-3.207,0c-1.806-0.811,0-2.401-2.408-3.012C244.581,381.484,244.388,379.271,244.971,379.066z" style="fill: rgb(19, 141, 117);"/>
				<path fill="#138D75" d="M270.061,388.493c0,0,0.193-0.785,0.995-2.201c0.797-1.401,0.797-2.605,2.815-1.804&#10;&#9;&#9;&#9;&#9;&#9;c1.998,0.797,5.206,2.403,5.003,3.802c-0.202,1.413,1.209,3.015-1.002,3.015c-2.198,0-2.995-1.206-5.013-1.401&#10;&#9;&#9;&#9;&#9;&#9;C270.855,389.704,270.658,389.904,270.061,388.493z" style="fill: rgb(19, 141, 117);"/>
				<path fill="#138D75" d="M217.517,371.648c0,0-1.404-2.206,0.592-2.206c2.003,0,2.803,0.404,4.016,0&#10;&#9;&#9;&#9;&#9;&#9;c1.209-0.395,1.609-0.2,4.021-0.395c2.388-0.198,4.199,0.195,3.597,1.189c-0.607,1.016-3.01,0-4.214,0.612&#10;&#9;&#9;&#9;&#9;&#9;c-1.204,0.607,0.999-0.4,0.999,1.206c0,1.596-1.194,1.806-1.799,2.011c-0.602,0.19-2.015-0.007-3.203-0.414&#10;&#9;&#9;&#9;&#9;&#9;c-1.209-0.395-1.611-0.795-2.61-0.795C217.919,372.856,217.517,371.648,217.517,371.648z" style="fill: rgb(19, 141, 117);"/>
				<path fill="#138D75" d="M217.112,366.447c0,0,0.604-0.809,2.201-0.809c1.599,0,4.421-1.211,4.421-1.211s1.998-1.608,3.607-0.595&#10;&#9;&#9;&#9;&#9;&#9;c1.604,1.002,2.596,1.411,2.807,2.401c0.197,1.006-1.204,1.399-3.619,1.006c-2.401-0.402-2.203-1.202-3.605-0.792&#10;&#9;&#9;&#9;&#9;&#9;c-1.397,0.39-2.413,0.99-3.612,0.99C218.109,367.436,217.112,366.447,217.112,366.447z" style="fill: rgb(19, 141, 117);"/>
			</g>
		</g>
		<path fill="#138D75" d="M912.805,763.311c0,0,1.993-2.391,0.395-4.401c-1.608-2.008-0.804-3.217,0.4-6.429&#10;&#9;&#9;&#9;c1.199-3.195,3.222-1.197,4.421-3.195c1.209-2.02,2.408-4.816,6.01-4.816c3.612,0,6.434,0.811,8.827-1.594&#10;&#9;&#9;&#9;c2.408-2.425,6.01-1.221,6.414-4.026c0.409-2.803-0.809-5.61,2.003-6.809c2.803-1.214,1.199,4.799,3.612,2.403&#10;&#9;&#9;&#9;c2.403-2.403,1.204-2.403,2.793-4.816c1.613-2.413,1.223-4.813,4.426-5.223c3.212-0.397,6.02,0.409,6.419,2.81&#10;&#9;&#9;&#9;c0.405,2.413,3.602,3.612,4.82,0.802c1.199-2.803-1.608-2.803,0.799-4.406c2.408-1.611,0.799-3.614,3.612-4.407&#10;&#9;&#9;&#9;c2.803-0.804,5.215-2.408,2.398-3.614c-2.793-1.197,2.003-2.415,4.416-0.802c2.408,1.609,0.4,3.612,4.411,3.612&#10;&#9;&#9;&#9;c4.011,0,4.011-2.403,6.025-0.809c1.989,1.613,2.408,3.607-0.809,5.213c-3.212,1.601-6.02,3.214-4.007,5.213&#10;&#9;&#9;&#9;c2.003,2.008,2.398,1.611,4.411,2.41c2.003,0.802,6.024,2.812,8.013,3.612c2.008,0.795,2.822,3.205,4.816,0.795&#10;&#9;&#9;&#9;c2.013-2.398,3.222-5.206,3.222-7.618c0-2.401,1.989-1.197,0.79-5.216c-1.204-4.009-1.594-6.41,0-7.606&#10;&#9;&#9;&#9;c1.613-1.219,4.416,1.197,4.416,4.007c0,2.798-2.008,4.404,0.804,6.814c2.803,2.405,6.414-0.809,6.8,2.001&#10;&#9;&#9;&#9;c0.414,2.81-3.602,2.413-0.79,6.824c2.822,4.411,2.013,8.021,4.406,8.021c2.422,0,2.817-2.405,5.62,0.402&#10;&#9;&#9;&#9;c2.817,2.819,0.01,3.21,1.604,6.012c1.608,2.81,3.612,4.019,5.61,4.818c2.018,0.807,2.822-0.811,4.421,4.012&#10;&#9;&#9;&#9;c1.604,4.813-1.214,7.231,1.199,12.029c2.413,4.816,2.817,3.207,1.194,6.814c-1.589,3.612,1.628,0-1.589,3.612&#10;&#9;&#9;&#9;c-3.207,3.617-4.816,4.816-4.816,7.633c0,2.793-1.613,4.804-2.813,8.427c-1.204,3.609-0.39,3.195-1.204,5.998&#10;&#9;&#9;&#9;c-0.79,2.798-2.803,0.802-5.206,1.604c-2.408,0.802-3.212,2.81-4.411,4.021c-1.194,1.209-4.016,1.603-4.811-1.211&#10;&#9;&#9;&#9;c-0.804-2.81,0.405-6.407-2.413-3.202c-2.803,3.202-3.203,4.414-4.406,4.414c-1.209,0-1.209-0.802-4.026-2.827&#10;&#9;&#9;&#9;c-2.798-1.996-3.602,0.819-5.596-2.798c-2.013-3.609-1.618-6.812-1.618-6.812s3.612-1.604,0-4.009&#10;&#9;&#9;&#9;c-3.612-2.405-6.015,3.6-8.028,1.604c-1.994-2.013,4.416-7.635,0.814-7.224c-3.612,0.405-1.204,2.403-3.612,3.607&#10;&#9;&#9;&#9;c-2.403,1.201-4.011-0.393-5.21-1.204c-1.209-0.792,0.395-1.998-2.003-3.609c-2.422-1.596-2.422-2.398-5.22-2.398&#10;&#9;&#9;&#9;c-2.803,0-6.415-2.013-9.627-0.404c-3.207,1.599-7.214,2.405-10.821,2.405c-3.621,0-2.822,0.802-4.021,2.81&#10;&#9;&#9;&#9;c-1.204,2.008,1.613,4.004-2.403,3.602c-4.007-0.4-5.615-1.201-7.623-1.201c-2.003,0-5.6,1.604-5.6,1.604s0,3.617-3.227,1.609&#10;&#9;&#9;&#9;c-3.207-2.011-4.801-0.41-6.01-0.41c-1.199,0-4.002-1.601-3.607-3.6c0.4-2.008,5.605,1.998,3.607-3.612&#10;&#9;&#9;&#9;c-1.999-5.612-3.607-8.427-4.811-9.624c-1.209-1.204,1.998-4.411,0.405-5.617C915.208,768.136,912.805,763.311,912.805,763.311z" style="fill: rgb(19, 141, 117);"/>
		<path fill="#138D75" d="M967.747,684.302c0,0,0.202-1.599,1.81-1.599c1.604,0-0.212-2.208,3.198-1.021&#10;&#9;&#9;&#9;c3.414,1.221,4.628,2.222,4.825,2.827c0.202,0.592,0,1.192,0,2.608c0,1.397,0.395,2.193,1.401,2.798&#10;&#9;&#9;&#9;c1.011,0.609,2.398,1.604,3.212,0.609c0.799-1.004,2.201-2.61,2.201-2.61s0.207-1.808,2.21-2.006&#10;&#9;&#9;&#9;c1.998-0.207,3.602,0.397,4.426,0.785c0.795,0.424,10.604,3.222,11.206,3.434c0.602,0.188,1.613,0,3.212,1.204&#10;&#9;&#9;&#9;c1.618,1.187,2.812,1.998,4.82,3.205c2.013,1.206,2.808,3.002,4.806,3.604c2.003,0.604,2.408-2.21,5.032-1.406&#10;&#9;&#9;&#9;c2.591,0.804,1.796,1.608,3.607,1.406c1.801-0.2,2.196,0.804,4.199,0c1.998-0.804,3.01-1.796,3.612-3.005&#10;&#9;&#9;&#9;c0.602-1.204,1.401-4.611,1.594-1.806c0.226,2.808-0.794,4.211-1.392,5.013c-0.592,0.797-2.61,2.003-3.222,2.003&#10;&#9;&#9;&#9;c-0.592,0-2.393-0.202-2.991-0.202c-0.611,0-2.205-1.199-3.612,0.202c-1.421,1.404-2.008,1.799-2.215,2.812&#10;&#9;&#9;&#9;c-0.188,0.995,1.006,1.996,1.006,1.996s-2.808-0.388,0.992,2.413c3.828,2.805,3.217,3.817,5.418,3.817&#10;&#9;&#9;&#9;c2.21,0,3.217-0.804,3.015,0.597c-0.207,1.397-3.612,1.998-4.209,1.998c-0.611,0-2.61-0.602-3.612-1.202&#10;&#9;&#9;&#9;c-0.997-0.602-1.816-0.797-2.798-1.197c-1.021-0.404-0.809-2.013-3.419-4.416c-2.62-2.398-4.618-2.617-5.813-2.398&#10;&#9;&#9;&#9;c-1.204,0.188-6.419,0.797-5.62,1.789c0.799,1.011,2.6,1.011,0.799,2.015c-1.806,0.997-4.609,0.804-5.211,0.597&#10;&#9;&#9;&#9;c-0.607-0.197-2.408-0.809-3.01-1.396c-0.602-0.607,0.409-2.208-1.806-2.018c-2.201,0.207-1.604,0.404-4.002,1.002&#10;&#9;&#9;&#9;c-2.418,0.602-5.032,0.212-4.007-1.002c0.997-1.206,6.212-3.005,5.808-4.609c-0.409-1.611,0-1.611-1.016-3.005&#10;&#9;&#9;&#9;c-0.992-1.406-7.811-3.005-7.811-3.005s-3.804-0.806-4.401-1.006c-0.612-0.198-2.808-2.798-2.808-2.798s-1.218-1.016-2.018,0.992&#10;&#9;&#9;&#9;c-0.799,2.006-2.413,1.608-2.413,1.608s-1.801-0.202-1.392-1.413c0.395-1.187,0.987-2.603,0.202-2.603&#10;&#9;&#9;&#9;c-0.809,0-1.806-0.604-1.806-0.604l4.199-1.201l-3.005-1.803C970.954,686.306,968.152,687.914,967.747,684.302z" style="fill: rgb(19, 141, 117);"/>
		<path opacity="0.5" fill="#138D75" d="M795.385,402.742c-1.06-0.53-0.265-0.14,0.78,0.78&#10;&#9;&#9;&#9;C796.001,403.214,795.78,402.935,795.385,402.742z" style="fill: rgb(19, 141, 117);"/>
		<path opacity="0.5" fill="#138D75" d="M1056.769,467.183c-0.168,0.214-0.27,0.402-0.27,0.532&#10;&#9;&#9;&#9;C1056.5,467.915,1056.615,467.667,1056.769,467.183z" style="fill: rgb(19, 141, 117);"/>
		<path opacity="0.5" fill="#138D75" d="M601.771,555.551c-0.12-0.041-0.265-0.041-0.424,0.003&#10;&#9;&#9;&#9;C600.967,555.652,601.217,555.625,601.771,555.551z" style="fill: rgb(19, 141, 117);"/>
		<path opacity="0.5" fill="#138D75" d="M551.926,517.688c-0.157-0.024-0.308-0.043-0.503-0.043&#10;&#9;&#9;&#9;C550.636,517.644,551.002,517.678,551.926,517.688z" style="fill: rgb(19, 141, 117);"/>
		<path fill="#138D75" d="M662.424,580.823c0,0-0.279,0.205-0.664,0.522l3.169-0.522H662.424z" style="fill: rgb(19, 141, 117);"/>
		<g>
			<path fill="#138D75" d="M536.377,497.797c0,0-2.699-4.211-1.209-4.211c1.512,0,4.522,0.595,4.522-0.905&#10;&#9;&#9;&#9;&#9;c0-1.507-0.313-3.01,2.109-3.01c2.398,0,4.806,0.6,5.105,1.503c0.303,0.903,1.507,2.413,0.303,5.126&#10;&#9;&#9;&#9;&#9;c-1.199,2.699-2.403,2.699-1.803,4.801c0.604,2.102,1.202,3.609-1.51,3.609c-2.702,0-4.204-2.109-5.403-0.898&#10;&#9;&#9;&#9;&#9;c-1.214,1.206-3.622,2.41-4.51,0.605C533.073,502.6,537.58,499.6,536.377,497.797z" style="fill: rgb(19, 141, 117);"/>
			<path fill="#138D75" d="M551.717,474.631c0,0-3.306,0.898-3.906,3.915c-0.604,3-0.31,6.003-0.31,6.003s0.31,0.913,2.417,2.415&#10;&#9;&#9;&#9;&#9;c2.107,1.507,2.702,2.105,1.505,3.915c-1.201,1.801,0.602-0.609,2.401,1.197c1.811,1.803,3.612,3.614,2.41,4.519&#10;&#9;&#9;&#9;&#9;c-1.201,0.903-5.711,1.503-4.811,3.005c0.898,1.5,3.007,3-0.311,4.508c-3.301,1.514,0,1.815,3.92,1.202&#10;&#9;&#9;&#9;&#9;c3.913-0.6,0.602,1.206-3.008,3.301c-3.614,2.116-4.524,3.925-4.524,3.925s3.612-0.602,6.323-1.808&#10;&#9;&#9;&#9;&#9;c2.707-1.202,5.415-2.697,7.527-2.697c2.112,0,6.602,1.789,7.512-1.211c0.913-3.008,2.102-1.51,1.508-5.719&#10;&#9;&#9;&#9;&#9;c-0.595-4.221-4.209-2.102-4.512-3.908c-0.296-1.801-2.396-5.117-4.811-5.413c-2.398-0.299-0.602-4.512-3.612-5.124&#10;&#9;&#9;&#9;&#9;c-3.005-0.592,2.408-3.291,1.803-6.301c-0.59-3.017-4.206-1.211-5.716-1.808C552.025,477.942,560.147,471.924,551.717,474.631z" style="fill: rgb(19, 141, 117);"/>
			<path fill="#138D75" d="M746.048,417.18c0.602,3.299,4.512,3.614,6.911,6.015c2.417,2.413-1.792,4.498-4.199,5.711&#10;&#9;&#9;&#9;&#9;c-2.403,1.211,0.901-2.393-1.199-3.903c-2.114-1.505-4.83,2.405-7.228,1.51c-2.403-0.905-3.607,1.18-7.219,2.393&#10;&#9;&#9;&#9;&#9;c-3.612,1.211,1.204-4.816-3.612-3.612c-4.811,1.219-10.527,5.117-13.238,5.422c-2.711,0.304-6.025,6.015-9.314,4.508&#10;&#9;&#9;&#9;&#9;c-3.313-1.508,0.896-2.105,1.792-4.813c0.9-2.718-12.632-5.117-8.427-3.612c4.218,1.51-0.597,4.221,1.512,8.122&#10;&#9;&#9;&#9;&#9;c2.119,3.915-0.602,4.821-3.906,2.709c-3.313-2.097-4.512,2.709-6.617,3.311c-2.099,0.602-0.607,5.422-3.915,6.02&#10;&#9;&#9;&#9;&#9;c-3.313,0.592-3.906-2.109-7.522-2.109c-3.612,0,2.109,4.816-1.199,4.816c-3.313,0-3.313-0.602-5.109-2.707&#10;&#9;&#9;&#9;&#9;c-1.801-2.109-1.801-4.221-2.417-6.323c-0.607-2.104-6.612-4.804-4.214-5.413c2.422-0.605,14.447,3.612,19.561,3.612&#10;&#9;&#9;&#9;&#9;c5.119,0,6.015-3.612,5.119-6.316c-0.91-2.704-11.741-7.825-15.646-8.126c-3.915-0.304-4.821-0.597-6.92-2.707&#10;&#9;&#9;&#9;&#9;c-2.114-2.107-6.313-0.893-10.214-1.801c-3.925-0.91,0.289-5.11-1.825-6.015c-2.1-0.91-3.915,0.6-7.224,1.806&#10;&#9;&#9;&#9;&#9;c-3.294,1.197,0.308-2.408-3.294-3.617c-3.622-1.199-3.915,2.41-6.925,2.41c-3.01,0-6.91,4.211-9.328,3.903&#10;&#9;&#9;&#9;&#9;c-2.403-0.304-3.901-0.304-6.617,2.104c-2.707,2.408-4.522,4.216-7.209,4.216c-2.721,0-1.517,2.104-2.721,4.515&#10;&#9;&#9;&#9;&#9;c-1.199,2.405-4.811,4.507-6.925,5.711c-2.1,1.209-3.891,9.33-6.003,9.93c-2.112,0.599-4.219,2.702-5.418,6.33&#10;&#9;&#9;&#9;&#9;c-1.202,3.593-8.738,3.886-12.027,5.401c-3.315,1.51,0.291,4.214-0.604,6.313c-0.905,2.116,1.209,3.318,0.896,6.622&#10;&#9;&#9;&#9;&#9;c-0.291,3.308-2.105,4.512-2.105,4.512s2.418,2.403,5.716,3.308c3.303,0.901,3.607-1.808,6.318-3.005&#10;&#9;&#9;&#9;&#9;c2.702-1.214,1.806,1.197,3.005-2.408c1.209-3.612,3.306-0.9,3.923,2.707c0.587,3.607,0.296,6.015,2.995,8.733&#10;&#9;&#9;&#9;&#9;c2.711,2.699,0.313,3.903,2.711,5.107c2.408,1.199,3.005-3.01,5.114-2.114c2.109,0.91,4.527-0.59,4.214-3.301&#10;&#9;&#9;&#9;&#9;c-0.299-2.702-1.503-6.911,1.214-7.527c2.692-0.597,5.1-3.002,5.408-5.107c0.294-2.109-2.716-3.607-4.214-4.209&#10;&#9;&#9;&#9;&#9;c-1.498-0.599,0.896-3.619,0.294-6.017c-0.592-2.41,5.114-8.43,7.826-8.733c2.702-0.282,3.915-3.91,5.119-7.816&#10;&#9;&#9;&#9;&#9;c1.199-3.906,7.517-4.211,8.418-3.604c0.905,0.595,3.01,1.202,3.01,4.808c0,3.607-8.134,8.124-9.631,8.427&#10;&#9;&#9;&#9;&#9;c-1.493,0.294-3.612,2.398-2.706,5.093c0.91,2.723-0.905,6.641-0.905,6.641s2.716,1.495,4.816,2.704&#10;&#9;&#9;&#9;&#9;c2.114,1.204,4.517,1.204,8.114-0.299c3.617-1.505,10.238-3.01,10.238-1.204c0,1.789,6.93,2.1,4.209,2.995&#10;&#9;&#9;&#9;&#9;c-2.706,0.913-4.209,1.214-5.105,2.716c-0.905,1.503-3.313-0.602-3.313-0.602s-7.517,0-9.626,0.294&#10;&#9;&#9;&#9;&#9;c-2.109,0.308-2.109,5.124,0.9,5.124c3.01,0,0.602,4.507-1.209,5.417c-1.801,0.898-2.095-2.112-3.915-2.711&#10;&#9;&#9;&#9;&#9;c-1.787-0.607-4.204,3.918-4.204,3.918s1.811,5.704-0.905,6.906c-2.697,1.211-0.299,3.609-3.906,3.91&#10;&#9;&#9;&#9;&#9;c-3.612,0.306-2.403-1.5-3.303-1.804c-0.91-0.301-7.816,0.901-9.328,2.109c-1.508,1.204-4.214,1.204-6.029-0.9&#10;&#9;&#9;&#9;&#9;c-1.796-2.104-4.199,0-5.712,1.199c-1.498,1.214-4.197-1.199-6.313-2.104c-2.102-0.9,0.898-4.515,1.803-7.219&#10;&#9;&#9;&#9;&#9;c0.908-2.707,1.209-6.915,0.908-5.711c-0.303,1.204-3.308,0.896-5.112,2.099c-1.816,1.206-3.017,5.114-1.816,6.017&#10;&#9;&#9;&#9;&#9;c1.216,0.898,2.719,4.209,2.114,7.525c-0.605,3.313-2.403,2.405-6.032,1.801c-3.59-0.597-2.685,3.617-3.893,5.408&#10;&#9;&#9;&#9;&#9;c-1.209,1.816-3.015-2.405-3.609,0c-0.6,2.418-1.206,3.323-3.913,4.825c-2.706,1.502-4.221-0.91-4.816,2.393&#10;&#9;&#9;&#9;&#9;c-0.595,3.323-2.418,2.422-4.209,3.917c-1.801,1.503-4.811-1.495-5.716-0.908c-0.91,0.602,1.498,3.328,0.303,4.228&#10;&#9;&#9;&#9;&#9;c-0.857,0.631-6.549,0.674-8.822,0.631c1.957,0.303,0.727,2.499,4.917,4.17c4.508,1.823,3.304,3.614,5.403,5.711&#10;&#9;&#9;&#9;&#9;c2.114,2.114,0.612,8.427-1.801,9.939c-2.403,1.503-10.831-1.221-10.831-1.221s-5.721-0.891-8.716,0.315&#10;&#9;&#9;&#9;&#9;c-3.019,1.199-4.825,1.199-3.318,3.91c1.503,2.697,0.91,6.92,0.299,9.313c-0.602,2.408-0.299,3.32,0.901,6.032&#10;&#9;&#9;&#9;&#9;c1.204,2.709-2.706,3.301-0.289,4.801c2.408,1.505,5.403-0.6,5.403-0.6c1.818-0.9,3.917,3.01,4.818,3.01&#10;&#9;&#9;&#9;&#9;c0.903,0,2.401-0.299,3.908-1.806c1.508-1.512,6.326-2.104,9.323-2.408c3.015-0.289,1.815-1.512,2.726-4.507&#10;&#9;&#9;&#9;&#9;c0.893-3.014,1.189-2.114,1.787-5.418c0.621-3.306,5.114-4.209,7.226-4.209c2.097,0,1.804-2.408,1.804-5.413&#10;&#9;&#9;&#9;&#9;c0-3.022,5.114-1.204,6.619-0.595c1.5,0.595,3.903-1.206,7.818-4.524c3.915-3.301,5.711,0.308,6.616,0.901&#10;&#9;&#9;&#9;&#9;c0.908,0.616,0.908,2.711,1.808,3.624c0.91,0.893,2.114,2.697,4.801,4.495c2.716,1.816,1.815,0,3.92,1.214&#10;&#9;&#9;&#9;&#9;c2.104,1.201,1.806,2.1,5.721,5.109c3.92,3.007,0.602,2.413,0.303,3.92c-0.303,1.498-3.014,2.1-5.721,1.801&#10;&#9;&#9;&#9;&#9;c-1.83-0.207-4.435,0.137-5.601,0.296c0.828,0.181,1.064,1.779,2.889,3.609c2.1,2.104,6.318,3.91,5.418,0.592&#10;&#9;&#9;&#9;&#9;c-0.905-3.301,3.014-2.408,5.731-4.199c2.697-1.806-0.313-2.718,0.269-4.816c0.631-2.1,4.527-0.91,3.617-2.405&#10;&#9;&#9;&#9;&#9;c-0.896-1.5-2.702-3.017-5.702-4.211c-3.014-1.206-2.711-1.806-2.711-3.607c0-1.799-3.303-3.005-5.114-4.226&#10;&#9;&#9;&#9;&#9;c-1.796-1.197-1.796-2.097-3.019-3.291c-1.189-1.204,1.512-3.313,2.114-4.209c0.602-0.91,5.716,1.204,6.318,3.304&#10;&#9;&#9;&#9;&#9;c0.597,2.099,3.308,6.015,7.513,6.624c4.218,0.595,3.925,2.995,4.522,4.799c0.592,1.801-0.9,4.214,3.602,7.517&#10;&#9;&#9;&#9;&#9;c4.517,3.318-0.588,2.716-0.588,4.828c0,2.097,2.398,6.306,4.199,5.109c1.82-1.216,1.512-3.624,3.915-3.624&#10;&#9;&#9;&#9;&#9;c2.408,0,6.328,2.716,6.024,0.913c-0.303-1.806-1.209-1.806-3.318-3.306c-2.099-1.498-2.099-1.204-2.099-3.318&#10;&#9;&#9;&#9;&#9;c0-2.1,1.801-0.299,1.512-1.806c-0.313-1.495,1.488-0.896,2.389-1.801c0.91-0.896,2.408-0.593,5.418,0.611&#10;&#9;&#9;&#9;&#9;c0,0,7.522,1.503,7.825,0c0.299-1.507,2.181-2.711,3.954-3.012c1.758-0.31,1.758,0,2.976,0c1.194,0,1.488,1.529,3.304-0.137&#10;&#9;&#9;&#9;&#9;c1.801-1.666,0.284-2.87,2.702-3.173c2.393-0.313,3.308,0,4.816,0c1.512,0,5.413,0.599,6.01,1.507&#10;&#9;&#9;&#9;&#9;c0.597,0.9,1.507,2.413,3.612,2.702c2.109,0.308,6.01,0.308,6.915,0c0.53-0.178,3.342-0.978,5.581-1.594l0.043-2.745&#10;&#9;&#9;&#9;&#9;c0,0-1.199-2.071-2.003-2.47c-0.809-0.405-3.202-2.328-3.202-2.328s2.798-0.277,3.804,0.123c0.997,0.388,4.406-0.4,5.013,0&#10;&#9;&#9;&#9;&#9;c0.602,0.388,2.812,1.594,3.414,1.594c0.592,0,3.8,0.802,4.801,1.011c1.016,0.188,4.011,3.4,6.419,4.816&#10;&#9;&#9;&#9;&#9;c2.417,1.392,2.008-0.207,2.61-0.602c0.597-0.414,1.801-0.814,2.095,0c0,0-3.304-5.153-3.304-7.041&#10;&#9;&#9;&#9;&#9;c0-1.89-5.499-3.997-4.108-5.196c1.397-1.202,3.386-2.1,3.597-5.124c0.226-3.005,3.511,5.141,5.625-2.095&#10;&#9;&#9;&#9;&#9;c-1.199-1.192-1.199-2.718-1.199-4.218c0-1.503-2.417-2.702-2.417-2.702l-2.095,1.789l-2.716-2.391c0,0-1.792-2.112,0-3.92&#10;&#9;&#9;&#9;&#9;c1.806-1.796,1.806-4.209,1.806-4.209s5.119,2.413,6.309,2.413c1.218,0,1.517-3.913,1.517-3.913l1.498-2.1&#10;&#9;&#9;&#9;&#9;c0,0,3.318,1.197,4.214,0c0,0-2.697-5.427,0-7.219c2.716-1.808,3.01-3.316,4.512-4.223c1.507-0.903,2.706-4.209,2.706-5.415&#10;&#9;&#9;&#9;&#9;c0-1.204,0.905-1.801,0-4.503c-0.905-2.716-0.905-2.716-0.905-5.716c0-3.017-5.095-0.913-0.583-6.02&#10;&#9;&#9;&#9;&#9;c4.502-5.11,9.02-7.515,10.517-8.119c1.503-0.602,5.716,0.303,6.318-2.413c0.597-2.707,1.503-8.423,1.811-10.229&#10;&#9;&#9;&#9;&#9;c0.298-1.791,1.199-4.51,2.706-6.015c1.503-1.5,4.209-3.604,6.02-4.507c1.792-0.905,6.02-3.614,6.906-4.512&#10;&#9;&#9;&#9;&#9;c0.91-0.898,2.711-3.015,2.711-3.015s2.1-3.306,0-3.901c-2.104-0.607-0.905-2.408-1.199-4.522&#10;&#9;&#9;&#9;&#9;c-0.304-2.099-1.189-0.393-1.498-2.588l0,0c-3.222-1.148-6.448-0.619-9.94-2.227C750.262,418.682,745.446,413.871,746.048,417.18&#10;&#9;&#9;&#9;&#9;z" style="fill: rgb(19, 141, 117);"/>
			<path fill="#138D75" d="M740.939,415.976c0,0-9.025,0.713-12.039-4.158c-3.01-4.869-4.209-4.129,0-9.316&#10;&#9;&#9;&#9;&#9;c4.214-5.175,4.647-7.578,4.647-7.578s6.183-5.43,7.392-6.633c1.199-1.197,4.421,1.994,6.005,0&#10;&#9;&#9;&#9;&#9;c4.816-6.015,6.015-6.617,7.83-6.617c1.801,0,5.61,0,5.61,0s2.822,3.012,4.618,0c1.801-3,9.925-3.607,10.975-2.403&#10;&#9;&#9;&#9;&#9;c1.059,1.211,0,4.209,0,4.209l-8.225,1.206c0,0-5.374-1.206-7.368,1.204c-2.003,2.401-5.008,3.604-5.008,3.604&#10;&#9;&#9;&#9;&#9;s-5.408,0.604-8.432,4.821c-3.005,4.209-7.214,6.968-7.214,9.207C739.73,405.743,735.825,414.777,740.939,415.976z" style="fill: rgb(19, 141, 117);"/>
			<path fill="#138D75" d="M497.875,450.268c0,0,3.607-4.209,0-5.417c-3.612-1.204-3.612-1.204-3.612-1.204&#10;&#9;&#9;&#9;&#9;s-2.008-6.017,2.605-5.418c4.613,0.607,5.82,6.003,5.82,6.003s2.405-5.487,5.41-6.046c3.005-0.556,1.806-0.036,5.413,0&#10;&#9;&#9;&#9;&#9;c3.617,0.043,7.228-0.26,7.228-0.26s1.204,6.029,1.801,6.174c0.609,0.152,4.214,2.557,0,3.763&#10;&#9;&#9;&#9;&#9;c-4.209,1.201-8.627-1.206-11.235,2.405c-2.605,3.612-8.028,0-8.028,0H497.875z" style="fill: rgb(19, 141, 117);"/>
			<path fill="#138D75" d="M608.576,373.803v-2.954c-3.612-1.801-5.61-2.403-5.61-2.403s-0.559-4.088-1.792-5.418&#10;&#9;&#9;&#9;&#9;c-2.827-3.005,1.377-6.328,3.698-5.418c6.106,2.413,11.437,3.024,11.437,3.024v-3.174c5.5,0.149,8.504,2.562,8.504,2.562&#10;&#9;&#9;&#9;&#9;s1.815-5.425,4.214-5.425c2.418,0,6.02,0,6.02,0h4.816c0,0,0.602,0,4.806,0c4.223,0,8.822,0.609,7.724,2.413&#10;&#9;&#9;&#9;&#9;c-1.098,1.811-7.724,4.221-7.724,4.221c-7.806,0-7.806,3.549-9.622,2.971c-1.811-0.568-8.663-2.379-8.663-2.379l6.265,5.415&#10;&#9;&#9;&#9;&#9;c5.398,0,8.423-0.599,8.423,1.206c0,1.791-10.243,5.357-10.243,5.357c-3-3.566-3-3.566-3-3.566s5.408-4.199,0,0&#10;&#9;&#9;&#9;&#9;c-5.418,4.216-10.402,7.883-11.519,8.452c0,0-4.801-0.891-5.923-2.413" style="fill: rgb(19, 141, 117);"/>
		</g>
		<g>
			<path fill="#138D75" d="M721.074,644.995c-1.204-0.802-2.798-0.802-5.615,1.197c-2.798,2.006-7.614,1.206-10.021,0.802&#10;&#9;&#9;&#9;&#9;c-2.398-0.39-4.416,1.204-8.023-1.594c-3.607-2.812-0.404-5.622-4.007-7.623c-3.607-1.994-4.806-3.207-6.424-6.419&#10;&#9;&#9;&#9;&#9;c-1.609-3.207-2.798-4.413-5.201-6.015c-2.418-1.609-3.222-4.009-4.426-10.431c-1.204-6.412-5.601-14.837-8.009-18.047&#10;&#9;&#9;&#9;&#9;c-1.161-1.539-2.215-5.28-3.014-8.752c-0.867-3.79-1.406-7.289-1.406-7.289l-3.169,0.522l-1.642,0.282&#10;&#9;&#9;&#9;&#9;c0,0-9.627-1.216-14.038-1.616c-4.421-0.39-12.444-4.401-16.86-4.806c-4.406-0.405-2.384,4.806-5.605,6.824&#10;&#9;&#9;&#9;&#9;c-3.217,1.998,0,0-5.211,0c-5.22,0-4.016-0.819-6.424-2.815c-2.403-2.006-7.609-4.414-12.027-4.414&#10;&#9;&#9;&#9;&#9;c-4.426,0-2.413-4.004-1.202-8.427c1.202-4.411,2.006-4.007,0-4.411c-2.01-0.397-1.608-3.202-4.816-1.998&#10;&#9;&#9;&#9;&#9;c-3.219,1.201-6.429,0.397-8.03,0.797c-1.594,0.405-12.429,1.201-14.837,1.201c-2.405,0-6.4,3.205-9.232,4.023&#10;&#9;&#9;&#9;&#9;c-2.798,0.797-7.611,0.797-11.213-0.407c-3.624-1.199-2.42-2.403-3.624,0.407c-1.189,2.793-3.207,7.216-6.007,7.606&#10;&#9;&#9;&#9;&#9;c-2.81,0.409-5.613,4.82-5.613,8.035c0,3.207,0,6.417-3.612,7.219c-3.607,0.792-8.822,6.812-10.435,10.428&#10;&#9;&#9;&#9;&#9;c-1.599,3.607-4.811,6.814-8.016,10.029c-3.219,3.195,0.397,6.415,2.006,10.031c1.613,3.6-1.209,2.807-0.804,7.221&#10;&#9;&#9;&#9;&#9;c0.395,4.399-3.212,7.209-3.212,7.209c2.808,1.594,2.408,5.225,2.408,5.225c-1.611,3.597,1.199,2.798,4.421,5.61&#10;&#9;&#9;&#9;&#9;c3.198,2.798,5.208,4.411,6.005,8.827c0.804,4.397,7.628,6.015,10.84,9.212c3.203,3.212,3.203,5.223,7.614,3.212&#10;&#9;&#9;&#9;&#9;c4.406-1.999,10.828-1.609,14.842-0.405c4.007,1.209,8.825-2.808,12.434-4.411c3.607-1.594,8.023,0,11.228,1.999&#10;&#9;&#9;&#9;&#9;c3.215,2.013-1.998,2.817,2.001,3.219c4.011,0.402,5.625-0.807,9.236,2.006c3.6,2.798,1.996,7.214-0.4,11.238&#10;&#9;&#9;&#9;&#9;c-2.413,3.997,1.599,8.418,6.412,10.024c4.801,1.599-0.407,2.803,3.612,8.018c4.011,5.211,1.189,10.029,3.207,12.03&#10;&#9;&#9;&#9;&#9;c2.003,2.013,0.804,8.023-2.403,12.037c-3.212,4.007-1.604,10.435,0.385,16.433c2.018,6.032,6.828,15.656,7.238,19.662&#10;&#9;&#9;&#9;&#9;c0.39,4.016,5.21,12.434,7.618,16.843c2.403,4.418,1.998,13.236,3.612,14.44c1.604,1.201,7.209,3.212,10.031,1.604&#10;&#9;&#9;&#9;&#9;c2.793-1.604,7.209-1.201,11.216-1.201c4.021,0,7.224-4.811,10.835-8.018c3.607-3.219,3.607-4.414,7.214-7.621&#10;&#9;&#9;&#9;&#9;c3.617-3.207,3.222-4.014,3.222-8.415c0-4.411,4.411-6.024,8.013-7.221c3.602-1.209,1.608-6.826-0.39-10.438&#10;&#9;&#9;&#9;&#9;c-2.023-3.602-1.223-2.391,2.393-8.018c3.612-5.615,8.023-6.415,13.238-9.227c5.216-2.808-0.794-6.419,0.804-12.027&#10;&#9;&#9;&#9;&#9;c1.608-5.615-2.013-6.419-1.599-10.426c0.39-4.016-1.604-5.63-2.408-8.44c-0.814-2.8,2.408-6.398,4.007-9.22&#10;&#9;&#9;&#9;&#9;c1.608-2.81,4.011-6.821,8.018-10.026c4.021-3.197,10.431-7.214,16.45-14.437C718.676,658.632,722.283,645.804,721.074,644.995z" style="fill: rgb(19, 141, 117);"/>
			<path fill="#138D75" d="M698.831,757.7c0,0,1.194-1.808,0-7.226c-1.209-5.415-1.82-6.005,0-7.811&#10;&#9;&#9;&#9;&#9;c1.792-1.811-4.358-11.435,0.525-12.039c4.878-0.6,5.682,0,8.591-3.005c2.909-3.01,6.525-4.211,6.525-7.231&#10;&#9;&#9;&#9;&#9;c0-2.993,6.785,4.221,4.888,6.638c-1.888,2.396-2.504,4.202-2.504,6.614c0,2.405-2.995,6.614-2.995,8.418&#10;&#9;&#9;&#9;&#9;c0,1.806,0,7.226,0,7.226s-0.583,7.616-3.005,8.415C703.637,760.115,698.831,764.924,698.831,757.7z" style="fill: rgb(19, 141, 117);"/>
		</g>
		<g>
			<path fill="#138D75" d="M400.161,674.474" style="fill: rgb(19, 141, 117);"/>
		</g>
		<g>
			<path fill="#138D75" d="M689.05,475.852" style="fill: rgb(19, 141, 117);"/>
			<path fill="#138D75" d="M662.357,475.852" style="fill: rgb(19, 141, 117);"/>
			<path fill="#138D75" d="M669.609,463.974" style="fill: rgb(19, 141, 117);"/>
		</g>
		<g>
			<path fill="#138D75" d="M937.755,462.551" style="fill: rgb(19, 141, 117);"/>
			<path fill="#138D75" d="M945.022,450.675" style="fill: rgb(19, 141, 117);"/>
			<path fill="#138D75" d="M964.458,462.551" style="fill: rgb(19, 141, 117);"/>
			<path fill="#138D75" d="M951.119,438.186" style="fill: rgb(19, 141, 117);"/>
		</g>
	</g>
</g>
</svg>